<?xml version="1.0" standalone="no"?>
<!DOCTYPE svg PUBLIC "-//W3C//DTD SVG 1.1//EN" "http://www.w3.org/Graphics/SVG/1.1/DTD/svg11.dtd" >
<svg xmlns="http://www.w3.org/2000/svg">
<metadata>
<json>
<![CDATA[
{
	"fontFamily": "zclive-solid",
	"description": "Font generated by IcoMoon.",
	"majorVersion": 1,
	"minorVersion": 0,
	"version": "Version 1.0",
	"fontId": "zclive-solid",
	"psName": "zclive-solid",
	"subFamily": "Regular",
	"fullName": "zclive-solid"
}
]]>
</json>
</metadata>
<defs>
<font id="zclive-solid" horiz-adv-x="1024">
<font-face units-per-em="1024" ascent="960" descent="-64" />
<missing-glyph horiz-adv-x="1024" />
<glyph unicode="&#x20;" horiz-adv-x="512" d="" />
<glyph unicode="&#xe600;" glyph-name="weather-celsius" data-tags="weather-celsius" d="M742.4 791.050c22.641 0 37.453 0.048 50.35-1.65 84.987-11.201 151.849-78.063 163.052-163.050 1.695-12.897 1.649-27.711 1.649-50.35 0-19.794-16.056-35.85-35.85-35.85s-35.85 16.056-35.85 35.85c0 24.894-0.072 33.888-0.998 40.95-6.958 52.843-48.558 94.444-101.402 101.4-7.060 0.928-16.056 1-40.95 1h-76.8c-48.512 0-82.514-0.008-108.902-2.4-25.887-2.347-40.94-6.736-52.398-13.35-17.896-10.334-32.766-25.204-43.1-43.1-6.614-11.456-11.002-26.511-13.35-52.4-2.392-26.388-2.4-60.388-2.4-108.9v-204.8c0-48.512 0.008-82.514 2.4-108.902 2.348-25.887 6.736-40.94 13.35-52.398 10.334-17.894 25.204-32.768 43.1-43.1 11.458-6.615 26.511-11.003 52.398-13.348 26.388-2.391 60.39-2.401 108.902-2.401h102.4c65.039 0 117.75 52.71 117.75 117.75 0 19.794 16.056 35.85 35.85 35.85s35.85-16.056 35.85-35.85c0-104.627-84.823-189.45-189.45-189.45h-102.4c-47.191 0-84.977 0-115.348 2.749-30.863 2.796-57.569 8.694-81.752 22.651-28.798 16.625-52.723 40.55-69.35 69.35-13.959 24.182-19.853 50.888-22.65 81.751-2.753 30.372-2.75 68.157-2.75 115.348v204.8c0 47.19-0.002 84.977 2.75 115.35 2.797 30.863 8.691 57.567 22.65 81.75 16.627 28.798 40.551 52.723 69.35 69.35 24.183 13.959 50.888 19.853 81.752 22.65 30.372 2.753 68.157 2.75 115.348 2.75h76.8zM153.6 893.45c76.348 0 138.25-61.902 138.25-138.25s-61.902-138.25-138.25-138.25c-76.348 0-138.25 61.902-138.25 138.25s61.902 138.25 138.25 138.25z" />
<glyph unicode="&#xe601;" glyph-name="weather-cloud-13" data-tags="weather-cloud-13" d="M823.040 478.895c-23.040 149.76-155.52 262.080-311.040 262.080-135.36 0-253.44-83.52-296.64-207.36-97.92-25.92-164.16-109.438-164.16-210.241 0-112.317 86.4-207.36 201.6-215.997h550.083c95.037 8.637 169.917 92.16 169.917 187.197 0 89.283-63.36 164.161-149.76 184.321z" />
<glyph unicode="&#xe602;" glyph-name="weather-cloud-14" data-tags="weather-cloud-14" d="M627.2 760.050c-146.88 0-276.48-95.040-325.44-230.4-5.76 0-14.4 0-20.16 0-126.72 0-230.4-103.682-230.4-230.402s103.68-230.4 230.4-230.4h374.4c2.877 0 8.637 0 11.52 2.883 175.683 20.157 305.28 167.040 305.28 342.717 0 190.082-155.52 345.602-345.6 345.602z" />
<glyph unicode="&#xe603;" glyph-name="weather-cloud-drop" data-tags="weather-cloud-drop" d="M814.74 635.845c-25.923 149.76-155.52 262.080-313.922 262.080-132.48 0-250.56-83.52-299.52-207.36-92.16-25.92-161.28-112.32-161.28-210.24 0-112.32 86.4-204.48 201.6-216h129.6c14.4 25.917 34.56 54.717 60.48 92.16 17.28 23.040 40.32 34.56 69.12 34.56s51.839-11.52 69.119-34.56c25.923-34.56 46.080-66.243 60.483-92.16h161.28c97.92 11.52 169.917 92.16 169.917 187.2 0 89.28-60.477 164.16-146.877 184.32zM616.018 143.365c0 48.957-57.6 132.48-92.16 178.56-11.52 14.397-34.559 14.397-46.079 0-34.56-46.080-92.16-129.603-92.16-178.56 0-69.12 57.6-109.44 115.2-109.44s115.199 40.32 115.199 109.44z" />
<glyph unicode="&#xe604;" glyph-name="weather-cloud-fog-31" data-tags="weather-cloud-fog-31" d="M212.486 641.377c-92.16-25.92-161.28-112.32-161.28-210.237 0-5.76 0-11.52 0-17.28 0-14.403 14.4-25.923 28.8-25.923h863.999c8.643 0 14.403 2.883 20.163 8.643s8.637 14.397 8.637 23.040c-5.76 80.637-66.237 146.877-146.877 167.037-25.923 149.76-155.52 262.080-313.923 262.080-132.479 0-250.559-83.52-299.519-207.36zM944.005 301.537h-863.999c-17.28 0-28.8-11.52-28.8-28.8s11.52-28.8 28.8-28.8h863.999c17.28 0 28.8 11.52 28.8 28.8s-11.52 28.8-28.8 28.8zM857.605 157.537c0 17.28-11.52 28.8-28.8 28.8h-633.599c-17.28 0-28.8-11.52-28.8-28.8s11.52-28.8 28.8-28.8h633.599c17.28 0 28.8 11.52 28.8 28.8zM742.405 42.337c0 17.28-11.52 28.8-28.8 28.8h-403.199c-17.28 0-28.8-11.52-28.8-28.8s11.52-28.8 28.8-28.8h403.199c17.28 0 28.8 11.52 28.8 28.8z" />
<glyph unicode="&#xe605;" glyph-name="weather-cloud-fog-32" data-tags="weather-cloud-fog-32" d="M814.74 560.326c-25.923 149.76-155.52 262.080-313.922 262.080-132.48 0-250.56-83.52-299.52-207.36-92.16-25.92-161.28-112.32-161.28-210.238 0-37.443 8.64-72.003 25.92-100.803h290.88c48.96 0 86.4-37.437 86.4-86.4 0-11.52-2.88-20.157-5.76-28.8h354.242c97.92 11.52 169.917 92.16 169.917 187.203 0 89.278-60.477 164.158-146.877 184.318zM356.819 246.405h-288c-17.28 0-28.8-11.52-28.8-28.8s11.52-28.8 28.8-28.8h288c17.28 0 28.8 11.52 28.8 28.8s-11.52 28.8-28.8 28.8zM184.019 102.405c0-17.28 11.52-28.8 28.8-28.8h288c17.279 0 28.799 11.52 28.799 28.8s-11.52 28.8-28.799 28.8h-288c-17.28 0-28.8-11.52-28.8-28.8z" />
<glyph unicode="&#xe606;" glyph-name="weather-cloud-hail" data-tags="weather-cloud-hail" d="M814.838 632.32c-25.917 149.76-155.52 262.080-313.919 262.080-132.48 0-250.56-83.52-299.52-207.36-92.16-25.92-161.28-112.32-161.28-210.24 0-112.323 86.4-204.477 201.6-215.997h86.4v115.2c0 17.275 11.52 28.795 28.8 28.795s28.8-11.52 28.8-28.795v-115.2h86.4v57.6c0 17.275 11.52 28.795 28.8 28.795 17.282 0 28.802-11.52 28.802-28.795v-57.6h86.4v115.2c0 17.275 11.52 28.795 28.8 28.795s28.8-11.52 28.8-28.795v-115.2h118.077c97.92 11.52 169.923 92.16 169.923 187.197 0 89.28-60.483 164.16-146.883 184.32zM385.719 88.003v28.795c0 17.28-11.52 28.805-28.8 28.805s-28.8-11.525-28.8-28.805v-28.795c0-17.28 11.52-28.805 28.8-28.805s28.8 11.525 28.8 28.805zM529.72 30.403v28.795c0 17.28-11.52 28.805-28.802 28.805-17.28 0-28.8-11.525-28.8-28.805v-28.795c0-17.28 11.52-28.805 28.8-28.805 17.282 0 28.802 11.525 28.802 28.805zM673.72 88.003v28.795c0 17.28-11.52 28.805-28.8 28.805s-28.8-11.525-28.8-28.805v-28.795c0-17.28 11.52-28.805 28.8-28.805s28.8 11.525 28.8 28.805zM328.119 231.997c0-17.275 11.52-28.795 28.8-28.795s28.8 11.52 28.8 28.795v28.805h-57.6v-28.805zM616.12 231.997c0-17.275 11.52-28.795 28.8-28.795s28.8 11.52 28.8 28.795v28.805h-57.6v-28.805zM472.119 174.397c0-17.275 11.52-28.795 28.8-28.795 17.282 0 28.802 11.52 28.802 28.795v86.405h-57.602v-86.405z" />
<glyph unicode="&#xe607;" glyph-name="weather-cloud-light" data-tags="weather-cloud-light" d="M814.74 632.326c-25.923 149.76-155.52 262.080-313.922 262.080-132.48 0-250.56-83.52-299.52-207.36-92.16-25.92-161.28-112.32-161.28-210.24 0-112.318 86.4-204.478 201.6-215.998h92.16c2.88 5.76 5.76 14.397 8.64 20.157l115.2 172.801c17.28 23.040 43.2 37.44 71.999 37.44 17.28 0 34.56-5.76 48.963-14.4 40.32-25.92 48.957-80.641 23.040-120.961l-25.923-37.437h11.52c31.683 0 60.483-17.28 74.88-43.203 2.883-5.76 2.883-8.637 5.76-14.397h123.843c97.92 11.52 169.917 92.16 169.917 187.198 0 89.28-60.477 164.16-146.877 184.32zM546.898 427.848c-14.397 8.637-31.677 5.76-40.319-8.643l-115.2-172.8c-5.76-8.637-5.76-20.157 0-28.8 5.76-8.637 14.4-14.397 25.92-14.397h123.839l-89.279-158.403c-8.64-14.397-2.88-31.677 11.52-40.32 0-2.877 2.88-2.877 8.64-2.877 8.64 0 20.16 5.76 25.92 14.397l115.202 201.6c5.76 8.643 5.76 20.163 0 28.8-5.76 8.643-14.403 14.403-25.923 14.403h-118.079l86.402 126.72c5.76 14.397 2.877 31.677-8.643 40.32z" />
<glyph unicode="&#xe608;" glyph-name="weather-cloud-moon" data-tags="weather-cloud-moon" d="M674.053 892.865c18.657-1.442 33.091-17.036 33.101-35.75 0-44.622-6.968-103.792 16.2-157 10.854-24.928 28.436-47.935 57.8-65.75 29.809-18.081 73.856-32.031 139.351-34.95 16.896-0.754 30.961-13.27 33.751-29.95 6.492-38.986-4.675-123.692-76.8-207.849-1.915-2.237-4.111-4.111-6.4-5.75 23.721-24.228 41.631-56.893 47.949-100.25 25.298-173.706-125.404-217.201-223.299-217.201h-288.402c-33.549 0-67.504 3.866-98.5 16.701-317.081 131.308-251.86 554.576 79.8 574.148-0.423 4.964 0.117 10.106 1.9 15.1v0c12.239 34.26 40.009 97.425 84.65 151.35 44.511 53.757 110.805 103.927 198.9 97.15zM634.455 819.465c-40.013-7.61-74.619-33.842-104.1-69.45-34.636-41.838-58.011-91.908-69.752-122.8 113.287-12.831 205.585-98.311 226.449-211.251 32.876 4.291 83.128-0.051 128.701-21.448 1.357 4.9 3.722 9.626 7.25 13.747 41.324 48.219 55.726 93.586 59.802 122.251-57.375 6.164-102.999 20.848-138.854 42.6-43.197 26.217-70.113 61.242-86.298 98.4-22.303 51.231-23.997 107.896-23.199 147.95z" />
<glyph unicode="&#xe609;" glyph-name="weather-cloud-rain" data-tags="weather-cloud-rain" d="M483.2 65.705c0-16.384 11.52-27.305 28.8-27.305s28.8 10.921 28.8 27.305v191.15h-57.6v-191.15zM339.2 147.625c0-16.384 11.52-27.305 28.8-27.305s28.8 10.921 28.8 27.305v109.23h-57.6v-109.23zM627.2 147.625c0-16.384 11.52-27.305 28.8-27.305s28.8 10.921 28.8 27.305v109.23h-57.6v-109.23zM252.8 256.855h86.4v136.53c0 16.384 11.52 27.31 28.8 27.31s28.8-10.926 28.8-27.31v-136.53h86.4v54.61c0 16.384 11.52 27.31 28.8 27.31s28.8-10.926 28.8-27.31v-54.61h86.4v136.53c0 16.384 11.52 27.31 28.8 27.31s28.8-10.926 28.8-27.31v-136.53h118.083c97.92 10.921 169.917 87.378 169.917 177.49 0 84.653-60.477 155.65-146.883 174.765-25.917 141.994-155.515 248.49-313.917 248.49-132.48 0-250.56-79.19-299.52-196.608-92.16-24.576-161.28-106.496-161.28-199.338 0-106.494 86.4-193.878 201.6-204.798z" />
<glyph unicode="&#xe60a;" glyph-name="weather-cloud-rainbow" data-tags="weather-cloud-rainbow" d="M992.015 817.975c19.2 0 32 12.8 32 32s-12.8 32-32 32c-208 0-390.4-121.6-470.4-310.4-54.4 35.2-118.399 54.4-185.599 54.4-185.6 0-336-150.4-336-335.998 0-185.6 150.4-336 336-336h435.199c137.6 0 249.6 112 249.6 249.6 0 89.6-48 169.6-118.4 211.2 16 32 51.2 54.398 86.4 54.398 19.2 0 32 12.8 32 32s-12.8 32-32 32c-64 0-118.4-35.2-147.2-92.798-22.4 6.4-48 9.598-73.6 9.598-16 0-28.8-3.198-44.8-3.198 32 115.198 137.6 195.198 262.4 195.198 19.2 0 32 12.8 32 32s-12.8 32-32 32c-166.4 0-307.2-121.6-332.8-284.798-3.2-3.2-6.4-3.2-9.6-6.4-16 41.598-44.8 79.998-76.8 111.998 73.6 176 240 291.2 425.6 291.2z" />
<glyph unicode="&#xe60b;" glyph-name="weather-cloud-snow-34" data-tags="weather-cloud-snow-34" d="M825.917 600.541c-25.917 146.891-155.515 257.059-313.917 257.059-132.48 0-250.56-81.92-299.52-203.387-92.16-25.424-161.28-110.169-161.28-206.213 0-110.167 86.4-200.561 201.6-211.86h230.4v28.247c0 16.947 11.52 28.247 28.8 28.247s28.8-11.3 28.8-28.247v-28.247h262.083c97.92 11.3 169.917 90.394 169.917 183.613 0 87.568-60.477 161.014-146.883 180.788zM396.8 320.881c0-16.947-11.52-28.247-28.8-28.247s-28.8 11.3-28.8 28.247v28.252c0 16.947 11.52 28.247 28.8 28.247s28.8-11.3 28.8-28.247v-28.252zM684.8 320.881c0-16.947-11.52-28.247-28.8-28.247s-28.8 11.3-28.8 28.247v28.252c0 16.947 11.52 28.247 28.8 28.247s28.8-11.3 28.8-28.247v-28.252zM540.8 66.647v28.247c0 16.952-11.52 28.252-28.8 28.252s-28.8-11.3-28.8-28.252v-28.247c0-16.947 11.52-28.247 28.8-28.247s28.8 11.3 28.8 28.247zM396.8 151.393v28.247c0 16.952-11.52 28.247-28.8 28.247s-28.8-11.295-28.8-28.247v-28.247c0-16.947 11.52-28.247 28.8-28.247s28.8 11.3 28.8 28.247zM684.8 151.393v28.247c0 16.952-11.52 28.247-28.8 28.247s-28.8-11.295-28.8-28.247v-28.247c0-16.947 11.52-28.247 28.8-28.247s28.8 11.3 28.8 28.247z" />
<glyph unicode="&#xe60c;" glyph-name="weather-cloud-snow-42" data-tags="weather-cloud-snow-42" d="M825.917 598.755c-25.917 147.911-155.515 258.845-313.917 258.845-132.48 0-250.56-82.489-299.52-204.8-92.16-25.6-161.28-110.934-161.28-207.647 0-110.93 86.4-201.953 201.6-213.33h95.040c-23.040 25.6-28.8 68.265-11.52 99.553 14.4 25.6 43.2 42.67 74.88 42.67 5.76 0 11.52 0 17.28-2.847 11.52 34.135 43.2 59.735 83.52 59.735s71.997-25.6 83.517-59.735c5.76 0 11.52 2.847 17.285 2.847 31.677 0 60.477-17.070 74.88-42.67 20.157-34.13 14.397-73.953-11.52-99.553h126.72c97.92 11.377 169.917 91.023 169.917 184.888 0 88.177-60.477 162.132-146.883 182.044zM388.16 160.712c5.76-8.535 14.4-14.223 25.92-14.223 5.76 0 8.64 0 14.4 2.847l57.6 31.288v-62.577c0-17.070 11.52-28.447 28.803-28.447 17.28 0 28.8 11.377 28.8 28.447v65.418l57.6-31.288c5.755-2.842 8.637-2.842 14.397-2.842 8.643 0 20.157 5.688 25.917 14.218 8.643 14.223 2.883 31.293-11.515 39.823l-60.483 28.447 57.6 31.288c14.397 8.535 17.28 25.6 11.52 39.823-8.643 14.218-25.917 17.065-40.32 11.377l-57.6-31.288v62.577c0 17.065-11.52 28.447-28.8 28.447s-28.8-11.382-28.8-28.447v-65.423l-57.6 31.288c-14.4 8.535-31.68 2.847-40.32-11.377s-2.88-31.288 11.52-39.823l57.6-31.288-57.6-31.288c-11.52-5.688-17.28-22.753-8.64-36.977z" />
<glyph unicode="&#xe60d;" glyph-name="weather-cloud-sun-17" data-tags="weather-cloud-sun-17" d="M704 905.125c-128 0-243.2-76.8-294.4-192-9.6 0-19.2 0-28.8 0-211.2 0-380.8-172.8-380.8-384.001s169.6-384 380.8-384h393.6c140.8 0 249.6 112 249.6 252.8 0 73.6-28.8 137.6-76.8 182.4 48 57.6 76.8 128.001 76.8 204.801 0 176-144 320-320 320zM896 418.724c-35.2 19.2-76.8 32.001-124.8 32.001-9.6 0-19.2 0-28.8-3.201-38.4 128.001-140.8 224.001-268.8 256.001 44.8 83.2 134.4 137.6 230.4 137.6 140.8 0 256-115.2 256-256 0-64-22.4-121.6-64-166.401z" />
<glyph unicode="&#xe60e;" glyph-name="weather-cloud-sun-19" data-tags="weather-cloud-sun-19" d="M575.99 864.006c19.2 0 32 12.8 32 32v32c0 19.2-12.8 32-32 32s-32-12.8-32-32v-32c0-19.2 12.8-32 32-32zM847.99 752.006c9.6 0 16 3.2 22.4 9.6l22.4 22.4c12.8 12.8 12.8 32 0 44.8s-32 12.8-44.8 0l-22.4-22.4c-12.8-12.8-12.8-32 0-44.8 6.4-6.4 12.8-9.6 22.4-9.6zM991.99 544.006h-32c-19.2 0-32-12.8-32-32s12.8-32 32-32h32c19.2 0 32 12.8 32 32s-12.8 32-32 32zM281.588 761.606c6.4-6.4 16-9.6 22.4-9.6s16 3.2 22.4 9.6c12.8 12.8 12.8 32 0 44.8l-22.4 22.4c-12.8 12.8-32 12.8-44.8 0s-12.8-32 0-44.8l22.4-22.4zM847.99 422.405c9.6 28.801 16 57.601 16 89.601 0 160-128 288-288 288-124.802 0-233.602-80-272.002-195.2-169.6-16-304-160.001-304-332.801 0-185.6 150.4-336 336-336h435.202c137.6 0 249.6 112 249.6 249.6 3.2 112-70.4 204.8-172.8 236.8zM787.19 435.205c-3.2 0-6.4 0-12.8 0-44.8 0-86.4-12.8-124.8-35.2-48 112.001-153.602 192.001-275.202 204.801 35.2 80 112 131.2 201.602 131.2 124.8 0 224-99.2 224-224 0-25.6-6.4-54.4-12.8-76.801z" />
<glyph unicode="&#xe60f;" glyph-name="weather-compass" data-tags="weather-compass" d="M512 908.8c254.495 0 460.8-206.307 460.8-460.8 0-254.495-206.305-460.8-460.8-460.8-254.493 0-460.8 206.305-460.8 460.8 0 254.493 206.307 460.8 460.8 460.8zM701.102 603.2c6.4 20.256-13.245 39.036-33.203 31.75l-307.949-112.45c-20.617-7.527-22.849-35.817-3.65-46.45l109.4-60.552c15.421-8.535 28.412-20.89 37.65-35.896l54.602-88.75c11.494-18.647 39.583-15.186 46.198 5.699l96.952 306.65z" />
<glyph unicode="&#xe610;" glyph-name="weather-drop-12" data-tags="weather-drop-12" d="M403.55 831.35c64.86 46.329 152.041 46.329 216.902 0l5.35-3.85c153.487-109.634 244.598-289.678 244.598-478.301-0.005-197.934-160.466-361.999-358.4-361.999s-358.393 164.065-358.4 361.999c0 188.622 91.112 368.667 244.6 478.301l5.35 3.85zM340.1 334.5c-19.782-0.691-35.294-17.316-34.6-37.1 1.688-48.005 28.121-89.482 62-117.699 33.89-28.221 78.984-46.438 124.4-44.851 19.782 0.691 35.291 17.316 34.6 37.1-0.707 19.768-17.326 35.241-37.1 34.55-25.219-0.881-53.564 9.574-76.050 28.298-22.489 18.739-35.407 42.522-36.2 65.152-0.706 19.763-17.287 35.231-37.050 34.55z" />
<glyph unicode="&#xe611;" glyph-name="weather-drop-15" data-tags="weather-drop-15" d="M153.6 349.21c0 188.62 91.092 368.657 244.58 478.291l5.394 3.853c64.861 46.329 151.992 46.329 216.852 0l5.391-3.853c153.487-109.634 244.582-289.671 244.582-478.291 0-197.939-160.461-362.010-358.4-362.010s-358.4 164.070-358.4 362.010z" />
<glyph unicode="&#xe612;" glyph-name="weather-drops" data-tags="weather-drops" d="M432.9 646.873c46.799 33.799 111.402 33.799 158.199 0 110.116-79.53 176.896-208.222 176.901-344.050v-8.402c0-141.384-114.616-256-256-256s-256 114.616-256 256v8.402c0.007 135.828 66.787 264.52 176.9 344.050zM130.050 876.073c29.748 19.832 68.552 19.832 98.3 0 49.272-32.851 78.849-88.181 78.85-147.4v-7.55c0-66.003-53.5-119.489-119.5-119.5h-17c-66 0.012-119.5 53.497-119.5 119.5v7.55c0.001 59.219 29.578 114.549 78.85 147.4zM795.648 876.073c29.752 19.832 68.552 19.832 98.304 0 49.27-32.851 78.848-88.181 78.848-147.4v-7.55c0-66.003-53.499-119.489-119.501-119.5h-16.998c-66.002 0.012-119.501 53.497-119.501 119.5v7.55c0 59.219 29.578 114.549 78.848 147.4z" />
<glyph unicode="&#xe613;" glyph-name="weather-eclipse" data-tags="weather-eclipse" d="M460.8 857.6c-154.271-246.834-140.84-563.133 33.8-796.001l17.4-23.199-153.6 25.6-128 76.8-76.8 128-51.2 153.6 25.6 179.2 76.8 128 102.4 76.8 153.6 51.2zM901.1 448c0 214.905-174.193 389.1-389.1 389.1-214.905 0-389.1-174.195-389.1-389.1 0-214.907 174.195-389.1 389.1-389.1v-71.7c-254.493 0-460.8 206.305-460.8 460.8 0 254.493 206.307 460.8 460.8 460.8 254.495 0 460.8-206.307 460.8-460.8 0-254.495-206.305-460.8-460.8-460.8v71.7c214.907 0 389.1 174.193 389.1 389.1z" />
<glyph unicode="&#xe614;" glyph-name="weather-fahrenheit" data-tags="weather-fahrenheit" d="M928.799 892.7c16.343-3.335 28.652-17.774 28.652-35.1s-12.308-31.766-28.652-35.1l-7.199-0.75h-307.2c-65.039 0-117.75-52.712-117.75-117.75v-209.5h322.55l7.199-0.7c16.338-3.332 28.646-17.779 28.652-35.1 0-19.793-16.056-35.849-35.85-35.849h-322.55v-384.451c0-19.794-16.056-35.85-35.85-35.85s-35.85 16.056-35.85 35.85v665.6c0 104.625 84.826 189.45 189.45 189.45h307.2l7.199-0.75zM204.8 893.45c76.348 0 138.25-61.902 138.25-138.25s-61.902-138.25-138.25-138.25c-76.348 0-138.25 61.902-138.25 138.25s61.902 138.25 138.25 138.25z" />
<glyph unicode="&#xe615;" glyph-name="weather-fog" data-tags="weather-fog" d="M851.901 787.951c37.903 7.827 83.845 1.893 139.3-31.25 16.983-10.158 22.502-32.163 12.349-49.15-10.158-16.986-32.164-22.554-49.152-12.4-42.834 25.602-70.61 26.191-87.997 22.6-19.82-4.094-28.831-12.304-45.85-21.75-27.075-19.857-101.862-50.882-185.6-0.85-61.076 36.502-123.214 17.138-175.852-5.5-32.676-14.046-69.432-14.75-102.7-1.5l-11.25 4.5c-18.386 7.326-27.374 28.163-20.050 46.55 6.412 16.093 23.188 24.996 39.6 22.050l6.95-2 11.25-4.5c15.395-6.134 32.454-5.892 47.9 0.75 54.19 23.305 147.034 57.3 240.899 1.2 54.154-32.364 98.642-9.212 106.752-2.75l5.499 3.65c5.54 2.945 33.613 23.256 67.953 30.35zM851.901 378.353c37.903 7.823 83.845 1.889 139.3-31.252 16.983-10.158 22.502-32.164 12.349-49.152-10.158-16.983-32.164-22.548-49.152-12.396-42.834 25.6-70.61 26.189-87.997 22.6-19.82-4.096-28.831-12.303-45.85-21.75-27.075-19.86-101.862-50.883-185.6-0.85-61.076 36.5-123.214 17.137-175.852-5.504-32.676-14.044-69.432-14.746-102.7-1.5l-11.25 4.5c-18.386 7.327-27.374 28.165-20.050 46.551 6.412 16.092 23.188 24.996 39.6 22.052l6.95-2.002 11.25-4.5c15.395-6.134 32.454-5.888 47.9 0.753 54.19 23.306 147.034 57.298 240.899 1.198 54.154-32.364 98.642-9.211 106.752-2.749l5.499 3.651c5.54 2.944 33.613 23.255 67.953 30.351zM307.199 586.252c21.971 0.001 41.278-7.394 56.1-13.45 16.191-6.616 28.877-12.438 44.6-16.45 28.014-7.144 68.895-9.074 139.249 26.1 17.7 8.849 39.245 1.69 48.102-16 8.847-17.698 1.69-39.242-16-48.1-83.234-41.617-141.779-43.555-189.052-31.5-21.9 5.585-40.835 14.17-54 19.55-14.543 5.942-22.358 8.15-29 8.15-12.060-0.001-14.896 0-23.3-2.1-11.088-2.772-28.527-8.576-67.75-21.65-86.053-28.683-156.054 4.552-185.050 29.4l-5.25 4.85-4.6 5.65c-9.169 13.909-7.641 32.809 4.6 45.050s31.141 13.769 45.050 4.6l5.65-4.6 5.1-4.2c15.767-11.283 57.718-30.771 111.8-12.75 37.556 12.518 58.54 19.522 73.050 23.15 17.186 4.296 27.167 4.3 40.7 4.3zM307.199 176.65c21.971 0 41.278-7.393 56.1-13.45 16.191-6.615 28.877-12.436 44.6-16.451 28.014-7.142 68.895-9.073 139.249 26.102 17.7 8.847 39.245 1.69 48.102-16 8.847-17.7 1.69-39.245-16-48.102-83.234-41.615-141.779-43.556-189.052-31.498-21.9 5.586-40.835 14.172-54 19.548-14.543 5.944-22.358 8.151-29 8.151-12.060 0-14.896 0-23.3-2.099-11.088-2.77-28.527-8.576-67.75-21.652-86.053-28.682-156.054 4.557-185.050 29.404l-5.25 4.849-4.6 5.647c-9.169 13.911-7.641 32.814 4.6 45.051 12.241 12.242 31.141 13.773 45.050 4.603l5.65-4.603 5.1-4.198c15.767-11.284 57.718-30.771 111.8-12.749 37.556 12.518 58.54 19.523 73.050 23.148 17.186 4.296 27.167 4.301 40.7 4.301z" />
<glyph unicode="&#xe616;" glyph-name="weather-forecast" data-tags="weather-forecast" d="M66.55 38.4v819.2c0 19.794 16.056 35.85 35.85 35.85s35.85-16.056 35.85-35.85v-819.2c-0.001-19.794-16.056-35.85-35.85-35.85s-35.85 16.056-35.85 35.85zM255.25 775.521c0 42.22 38.867 73.811 80.2 65.2l116.3-24.25v-433.199l-116.3-24.3c-41.321-8.612-80.179 22.948-80.2 65.147v351.401zM719.852 760.622v-321.5l-196.449-40.95v403.399l196.449-40.95zM934.999 715.771c30.838-6.45 52.951-33.64 52.951-65.15v-101.55c-0.005-31.507-22.113-58.756-52.951-65.2l-143.498-29.85v291.7l143.498-29.95z" />
<glyph unicode="&#xe617;" glyph-name="weather-hurricane-44" data-tags="weather-hurricane-44" d="M921.6 704c0-113.108-183.383-204.8-409.6-204.8s-409.6 91.692-409.6 204.8 183.384 204.8 409.6 204.8c226.217 0 409.6-91.692 409.6-204.8zM885.75 704c0 35.665-29.839 77.594-100.147 112.75-68.173 34.084-164.854 56.2-273.603 56.2-108.75 0-205.431-22.115-273.6-56.2-70.312-35.156-100.15-77.085-100.15-112.75s29.838-77.594 100.15-112.75c68.169-34.084 164.85-56.2 273.6-56.2 108.749 0 205.43 22.115 273.603 56.2 70.308 35.156 100.147 77.085 100.147 112.75zM957.45 704c0-77.442-61.87-137.884-139.802-176.85-80.077-40.038-188.18-63.8-305.649-63.8-117.466 0-225.573 23.762-305.65 63.8-77.932 38.966-139.8 99.408-139.8 176.85s61.868 137.884 139.8 176.85c80.077 40.038 188.185 63.8 305.65 63.8 117.468 0 225.572-23.762 305.649-63.8 77.932-38.966 139.802-99.408 139.802-176.85zM168.95 345.6c0 63.304 50.4 110.949 109.8 140.65 61.546 30.773 144.061 48.8 233.25 48.8 19.794 0 35.85-16.056 35.85-35.85s-16.056-35.85-35.85-35.85c-80.474 0-151.562-16.379-201.2-41.201-51.777-25.887-70.15-55.020-70.15-76.549s18.373-50.662 70.15-76.549c49.638-24.822 120.727-41.201 201.2-41.201 80.471 0 151.562 16.379 201.201 41.201 51.779 25.887 70.149 55.020 70.149 76.549 0 19.794 16.056 35.85 35.85 35.85s35.85-16.056 35.85-35.85c0-63.304-50.401-110.95-109.798-140.652-61.548-30.771-144.061-48.799-233.252-48.799-89.188 0-171.704 18.028-233.25 48.799-59.4 29.701-109.8 77.348-109.8 140.652zM271.35 89.6c0 49.162 38.932 84.014 79.8 104.448 43.015 21.509 99.939 33.802 160.85 33.802 19.794 0 35.85-16.056 35.85-35.85s-16.056-35.85-35.85-35.85c-52.197 0-97.692-10.644-128.8-26.199-33.242-16.625-40.15-32.963-40.15-40.351s6.908-23.726 40.15-40.351c31.108-15.555 76.603-26.199 128.8-26.199 52.193 0 97.69 10.644 128.799 26.199 33.244 16.625 40.151 32.963 40.151 40.351 0 19.794 16.056 35.85 35.85 35.85s35.85-16.056 35.85-35.85c0-49.162-38.932-84.014-79.8-104.448-43.013-21.509-99.937-33.802-160.85-33.802-60.911 0-117.835 12.293-160.85 33.802-40.868 20.434-79.8 55.286-79.8 104.448z" />
<glyph unicode="&#xe618;" glyph-name="weather-hurricane-45" data-tags="weather-hurricane-45" d="M791.050 545.3h-558.1c-15.547 0.006-28.15 12.601-28.15 28.15 0.005 15.544 12.605 28.144 28.15 28.15h558.1v-56.3zM791.050 601.6l5.647-0.55c12.841-2.618 22.497-13.989 22.502-27.6 0-13.614-9.661-24.98-22.502-27.6l-5.647-0.55v56.3zM637.45 289.3h-353.3c-15.547 0.005-28.15 12.6-28.15 28.15 0.005 15.544 12.605 28.145 28.15 28.15h353.3v-56.3zM637.45 345.6l5.647-0.548c12.841-2.621 22.497-13.993 22.502-27.602 0-13.614-9.661-24.98-22.502-27.602l-5.647-0.548v56.3zM332.8 38.4h-102.4l-5.15 0.502c-11.672 2.381-20.45 12.723-20.45 25.098 0 14.136 11.462 25.6 25.6 25.6h102.4v-51.2zM332.8 89.6c14.138 0 25.6-11.464 25.6-25.6l-0.5-5.151c-2.043-10.010-9.94-17.905-19.95-19.948l-5.15-0.502v51.2zM944.65 801.3h-865.3c-15.547 0.006-28.15 12.601-28.15 28.15 0.006 15.544 12.605 28.144 28.15 28.15h865.3v-56.3zM944.65 857.6l5.647-0.55c12.841-2.618 22.497-13.989 22.502-27.6 0-13.614-9.661-24.98-22.502-27.6l-5.647-0.55v56.3z" />
<glyph unicode="&#xe619;" glyph-name="weather-moon-cloud-drop" data-tags="weather-moon-cloud-drop" d="M938.455 649.307c0 11.636 0 26.182-2.862 40.727 0 8.727-5.724 14.545-11.448 20.363s-14.31 5.818-22.897 2.909c-8.586-2.909-34.345-5.818-48.655-5.818-94.449 0-171.73 78.545-171.73 171.636 0 8.727-2.862 17.454-8.586 20.363s-14.31 11.636-22.897 8.727c-111.621-14.545-200.346-98.909-220.381-209.454-62.966-17.454-117.346-58.182-148.83-116.363-14.31 2.909-28.621 5.818-42.932 5.818-103.036 0-186.037-84.363-186.037-186.183 0-104.724 83.001-189.087 186.037-189.087h111.622c14.311 46.546 45.794 98.908 97.312 157.087 17.172 20.367 40.069 32 65.828 32s48.655-11.633 65.828-32c48.655-61.087 83-113.454 97.311-157.087h111.626c103.035 0 186.035 84.362 186.035 189.087 0 52.366-20.035 98.911-54.38 133.82 11.448 34.909 20.035 72.727 20.035 113.454zM881.213 649.307c0-29.091-5.724-55.272-17.172-81.455-25.759 11.637-51.517 20.364-83 20.364-25.759 0-51.523-5.818-74.419-17.455-40.069 84.363-123.069 136.727-217.518 136.727 20.035 66.909 71.552 119.272 137.38 136.727 17.172-110.545 111.621-194.908 226.109-194.908 8.586 0 20.035 0 28.621 0zM486.241 332.216c-31.483-37.816-91.588-119.27-91.588-171.633 0-78.546 57.243-122.184 114.485-122.184s114.483 43.638 114.483 122.184c0 55.27-60.104 133.816-91.587 171.633-11.448 14.546-34.345 14.546-45.794 0z" />
<glyph unicode="&#xe61a;" glyph-name="weather-moon-cloud-fog" data-tags="weather-moon-cloud-fog" d="M992 207.995h-960c-19.2 0-32-12.8-32-32s12.8-32 32-32h960c19.2 0 32 12.8 32 32s-12.8 32-32 32zM864 79.995h-704c-19.2 0-32-12.8-32-32s12.8-32 32-32h704c19.2 0 32 12.8 32 32s-12.8 32-32 32zM992 595.197c0 12.8 0 28.8-3.2 44.8 0 9.6-6.4 16-12.8 22.4s-16 6.4-25.6 3.2c-16-6.4-35.2-6.4-51.2-6.4-105.6 0-192 86.4-192 188.8 0 9.6-3.2 19.2-9.6 22.4s-19.2 9.6-28.8 9.6c-124.8-16-224-108.8-246.4-233.6-70.4-19.2-131.2-64-166.4-128-16 3.2-32 6.4-48 6.4-115.2 0-208-92.802-208-204.802 0-6.4 0-12.8 0-16 0-16 16-28.8 32-28.8h960c16 0 32 12.8 32 28.8 0 6.4 0 12.8 0 16 0 57.6-25.6 108.8-64 147.202 22.4 38.4 32 83.2 32 128zM928 595.197c0-32-6.4-60.8-19.2-89.6-28.8 12.8-57.6 22.4-92.8 22.4-28.8 0-57.6-6.4-83.2-19.2-44.8 89.6-137.6 147.2-243.2 147.2 22.4 73.6 80 134.4 153.6 153.6 19.2-121.6 124.8-214.4 252.8-214.4 9.6 0 22.4 0 32 0z" />
<glyph unicode="&#xe61b;" glyph-name="weather-moon-cloud-hail" data-tags="weather-moon-cloud-hail" d="M990.403 622.616c0 12.8 0 28.8-3.205 44.8 0 9.6-6.4 16-12.8 22.4s-15.995 6.4-25.6 3.2c-9.595-3.2-38.4-6.4-54.395-6.4-105.605 0-192 86.4-192 188.8 0 9.6-3.2 19.2-9.605 22.4-6.4 3.2-15.995 12.8-25.6 9.6-124.795-16-223.997-108.8-246.397-230.4-70.4-19.2-131.2-64-166.4-128-16 3.2-32 6.4-48 6.4-115.2 0-208-92.8-208-204.798 0-112 92.8-208 208-208h611.203c115.2 0 207.995 92.8 207.995 208 0 57.6-22.395 108.798-60.795 147.198 15.995 38.4 25.6 80 25.6 124.8zM926.403 622.616c0-32-6.4-60.8-19.2-89.6-28.805 12.8-57.6 22.4-92.805 22.4-28.795 0-57.6-6.4-83.2-19.2-44.8 92.8-137.595 150.4-243.197 150.4 22.4 73.6 80.003 131.2 153.597 150.4 19.2-121.6 124.805-214.4 252.805-214.4 9.595 0 22.395 0 32 0zM510.4 46.618c-19.2 0-32-12.8-32-32v-32c0-19.2 12.8-32 32-32 19.203 0 32.003 12.8 32.003 32v32c0 19.2-12.8 32-32.003 32zM382.4 110.618c-19.2 0-32-12.8-32-32v-32c0-19.2 12.8-32 32-32s32 12.8 32 32v32c0 19.2-12.8 32-32 32zM638.403 110.618c-19.2 0-32-12.8-32-32v-32c0-19.2 12.8-32 32-32s32 12.8 32 32v32c0 19.2-12.8 32-32 32z" />
<glyph unicode="&#xe61c;" glyph-name="weather-moon-cloud-light" data-tags="weather-moon-cloud-light" d="M990.403 608.538c0 12.8 0 28.8-3.205 44.8 0 9.6-6.4 16-12.8 22.4s-15.995 6.4-25.6 3.2c-15.995-6.4-35.195-6.4-51.2-6.4-105.595 0-192 86.4-192 188.8 0 9.6-3.195 19.2-9.595 22.4-6.405 3.2-19.2 9.6-28.805 9.6-124.795-16-223.997-108.8-246.397-233.6-70.4-19.2-131.2-64-166.4-128-16 3.2-32 6.4-48 6.4-115.2 0-208-92.8-208-204.8 0-115.2 92.8-208 208-208h150.4c-9.6 25.6-6.4 57.6 6.4 80l96 160c19.2 28.8 51.2 48 83.203 48 15.995 0 35.195-3.2 47.995-12.8 22.405-12.8 38.4-35.2 44.8-57.6 6.4-25.6 3.205-51.2-9.595-73.6l-12.8-22.4c19.2-9.6 35.195-22.4 47.995-41.6 12.805-25.6 16.005-54.4 6.4-80h150.405c115.2 0 207.995 92.8 207.995 208 0 57.6-25.6 108.8-64 147.2 19.2 38.4 28.805 83.2 28.805 128zM926.403 608.538c0-32-6.4-60.8-19.2-89.6-28.805 12.8-57.6 22.4-92.805 22.4-28.795 0-57.6-6.4-83.2-19.2-44.8 89.6-137.595 147.2-243.197 147.2 22.4 73.6 80.003 134.4 153.597 153.6 19.2-121.6 124.805-214.4 252.805-214.4 9.595 0 22.395 0 32 0zM574.403 189.338h-70.403l67.197 112c9.605 16 3.205 35.2-9.595 44.8-16.005 9.6-35.2 3.2-44.8-9.6l-96.003-160c-6.4-9.6-6.4-22.4 0-32s16-16 28.8-16h70.397l-67.197-112c-9.6-16-3.2-35.2 9.6-44.8 3.2-6.4 9.6-6.4 16-6.4 9.6 0 22.4 6.4 28.8 16l95.997 160c6.4 9.6 6.4 22.4 0 32s-15.995 16-28.795 16z" />
<glyph unicode="&#xe61d;" glyph-name="weather-moon-cloud-rain" data-tags="weather-moon-cloud-rain" d="M992 622.616c0 12.8 0 28.8-3.2 44.8 0 9.6-6.4 16-12.8 22.4s-16 6.4-25.6 3.2c-9.6-3.2-38.4-6.4-54.4-6.4-105.6 0-192 86.4-192 188.8 0 9.6-3.2 19.2-9.6 22.4s-16 12.8-25.6 9.6c-124.8-16-224-108.8-246.4-230.4-70.4-19.2-131.2-64-166.4-128-16 3.2-32 6.4-48 6.4-115.2 0-208-92.8-208-204.798 0-112 92.8-208 208-208h144v192c0 19.2 12.8 32 32 32s32-12.8 32-32v-192h64v96c0 19.2 12.8 32 32 32s32-12.8 32-32v-96h64v192c0 19.2 12.8 32 32 32s32-12.8 32-32v-192h144c115.2 0 208 92.8 208 208 0 57.6-22.4 108.798-60.8 147.198 19.2 38.4 28.8 80 28.8 124.8zM928 622.616c0-32-6.4-60.8-19.2-89.6-28.8 12.8-57.6 22.4-92.8 22.4-28.8 0-57.6-6.4-83.2-19.2-44.8 92.8-137.6 150.4-243.2 150.4 22.4 73.6 80 131.2 153.6 150.4 19.2-121.6 124.8-214.4 252.8-214.4 9.6 0 22.4 0 32 0zM352 78.618c0-19.2 12.8-32 32-32s32 12.8 32 32v64h-64v-64zM480-17.382c0-19.2 12.8-32 32-32s32 12.8 32 32v160h-64v-160zM608 78.618c0-19.2 12.8-32 32-32s32 12.8 32 32v64h-64v-64z" />
<glyph unicode="&#xe61e;" glyph-name="weather-moon-cloud-snow-61" data-tags="weather-moon-cloud-snow-61" d="M992 623.907c0 12.8 0 28.8-3.2 44.8 0 9.6-6.4 16-12.8 22.4s-16 6.4-25.6 3.2c-128-35.2-246.4 60.8-246.4 182.4 0 9.6-3.2 19.2-9.6 22.4-6.4 6.4-16 9.6-25.6 6.4-124.8-16-224-108.8-246.4-230.4-70.4-19.2-131.2-64-166.4-128-16 3.2-32 6.4-48 6.4-115.2 3.2-208-89.6-208-201.599 0-115.2 92.8-208 208-208h272v32c0 19.2 12.8 32 32 32s32-12.8 32-32v-32h272c115.2 0 208 92.8 208 208 0 57.6-22.4 108.799-60.8 147.199 19.2 38.4 28.8 80 28.8 124.8zM416 239.908c0-19.2-12.8-32-32-32s-32 12.8-32 32v32c0 19.2 12.8 32 32 32s32-12.8 32-32v-32zM672 239.908c0-19.2-12.8-32-32-32s-32 12.8-32 32v32c0 19.2 12.8 32 32 32s32-12.8 32-32v-32zM908.8 534.307c-28.8 12.8-57.6 22.4-92.8 22.4-28.8 0-57.6-6.4-83.2-19.2-44.8 92.8-137.6 150.4-243.2 150.4 22.4 73.6 80 131.2 153.6 150.4 22.4-131.2 147.2-230.4 284.8-214.4 0 0 0 0 0-3.2 0-28.8-6.4-57.6-19.2-86.4zM512 47.908c-19.2 0-32-12.8-32-32v-32c0-19.2 12.8-32 32-32s32 12.8 32 32v32c0 19.2-12.8 32-32 32zM384 111.908c-19.2 0-32-12.8-32-32v-32c0-19.2 12.8-32 32-32s32 12.8 32 32v32c0 19.2-12.8 32-32 32zM640 111.908c-19.2 0-32-12.8-32-32v-32c0-19.2 12.8-32 32-32s32 12.8 32 32v32c0 19.2-12.8 32-32 32z" />
<glyph unicode="&#xe61f;" glyph-name="weather-moon-cloud-snow-62" data-tags="weather-moon-cloud-snow-62" d="M988.8 591.907c0 12.8 0 28.8-3.2 44.8 0 9.6-6.4 16-12.8 22.4s-16 6.4-25.6 3.2c-128-35.2-246.4 60.8-246.4 182.4 0 9.6-3.2 19.2-9.6 22.4-6.4 6.4-16 9.6-25.6 6.4-124.8-16-224-108.8-246.4-230.4-70.4-19.2-131.2-64-166.4-128-16 3.2-32 6.4-48 6.4-115.2 3.2-208-89.599-208-201.599 0-115.2 92.8-208 208-208h105.6c3.2 12.8 9.6 22.4 19.2 32-25.6 28.8-32 73.6-12.8 112 16 28.8 48 48 83.2 48 6.4 0 12.8 0 19.2-3.2 12.8 38.4 48 67.2 92.8 67.2s80-28.8 92.8-67.2c6.4 0 12.8 3.2 19.2 3.2 35.2 0 67.2-19.2 83.2-48 22.4-38.4 16-83.2-12.8-112 9.6-9.6 16-19.2 19.2-32h105.6c115.2 0 208 92.8 208 208 0 57.6-22.4 108.8-60.8 147.199 12.8 38.4 22.4 80 22.4 124.8zM905.6 502.307c-28.8 12.8-57.6 22.4-92.8 22.4-28.8 0-57.6-6.4-83.2-19.2-44.8 92.8-137.6 150.4-243.2 150.4 22.4 73.6 80 131.2 153.6 150.4 22.4-131.2 147.2-230.4 284.8-214.4 0 0 0 0 0-3.2 0-28.8-6.4-57.6-19.2-86.4zM646.4 223.908c-9.6 16-28.8 19.2-44.8 12.8l-64-35.2v70.4c0 19.2-12.8 32-32 32s-32-12.8-32-32v-73.6l-64 35.2c-16 9.6-35.2 3.2-44.8-12.8s-3.2-35.2 12.8-44.8l64-35.2-64-35.2c-16-9.6-19.2-28.8-12.8-44.8 6.4-9.6 16-16 28.8-16 6.4 0 9.6 0 16 3.2l64 35.2v-67.2c0-19.2 12.8-32 32-32s32 12.8 32 32v73.6l64-35.2c6.4-3.2 9.6-3.2 16-3.2 9.6 0 22.4 6.4 28.8 16 9.6 16 3.2 35.2-12.8 44.8l-60.8 32 64 35.2c12.8 9.6 19.2 28.8 9.6 44.8z" />
<glyph unicode="&#xe620;" glyph-name="weather-moon-fog" data-tags="weather-moon-fog" d="M448.2 904.42c29.449 4.078 49.179-26.564 36.5-53.45l-5.65-11.95c-130.466-276.306 163.766-560.748 435.5-420.998 26.604 13.676 57.856-5.729 53.652-35.354-31.729-223.549-223.887-395.448-456.202-395.448-87.382 0-169.081 24.305-238.7 66.55h213.1c19.794 0 35.85 16.056 35.85 35.85-0.010 19.784-16.062 35.85-35.85 35.85h-303.4c-24.267 24.75-45.776 52.198-64 81.9h265c19.794 0 35.85 16.056 35.85 35.85-0.010 19.784-16.062 35.85-35.85 35.85h-300.7c-20.635 52.321-32.1 109.297-32.1 168.949 0.009 232.837 172.708 425.335 397 456.4z" />
<glyph unicode="&#xe621;" glyph-name="weather-moon-full" data-tags="weather-moon-full" d="M972.8 448c0-254.495-206.305-460.8-460.8-460.8-254.493 0-460.8 206.305-460.8 460.8 0 254.493 206.307 460.8 460.8 460.8 254.495 0 460.8-206.307 460.8-460.8z" />
<glyph unicode="&#xe622;" glyph-name="weather-moon-stars" data-tags="weather-moon-stars" d="M849.065 861.561c-6.866 17.476-31.508 17.476-38.374 0l-18.36-46.732c-2.099-5.335-6.308-9.559-11.622-11.663l-46.561-18.431c-17.408-6.892-17.408-31.625 0-38.517l46.561-18.431c5.315-2.104 9.523-6.328 11.622-11.663l18.36-46.732c6.866-17.476 31.508-17.476 38.374 0l18.365 46.732c2.094 5.336 6.303 9.559 11.617 11.663l46.561 18.431c17.413 6.892 17.413 31.625 0 38.517l-46.561 18.431c-5.315 2.104-9.523 6.328-11.617 11.663l-18.365 46.732zM684.058 613.135c-6.866 17.476-31.508 17.476-38.374 0l-6.697-17.039c-2.094-5.335-6.303-9.559-11.617-11.663l-16.978-6.72c-17.408-6.892-17.408-31.625 0-38.517l16.978-6.72c5.315-2.104 9.523-6.328 11.617-11.663l6.697-17.039c6.866-17.476 31.508-17.476 38.374 0l6.697 17.039c2.094 5.336 6.303 9.559 11.617 11.663l16.978 6.72c17.413 6.892 17.413 31.625 0 38.517l-16.978 6.72c-5.315 2.104-9.523 6.328-11.617 11.663l-6.697 17.039zM512-12.8c232.315 0 424.479 171.919 456.207 395.474 4.204 29.624-27.064 49.044-53.673 35.364-271.734-139.75-565.961 144.684-435.481 420.994l5.629 11.921c12.699 26.891-7.026 57.548-36.484 53.468-224.297-31.066-396.999-223.574-396.999-456.419 0-254.491 206.307-460.801 460.8-460.801z" />
<glyph unicode="&#xe623;" glyph-name="weather-moon" data-tags="weather-moon" d="M512-12.8c232.315 0 424.479 171.919 456.207 395.474 4.204 29.624-27.064 49.044-53.673 35.364-271.734-139.75-565.961 144.684-435.481 420.994l5.629 11.921c12.699 26.891-7.026 57.548-36.484 53.468-224.297-31.066-396.999-223.574-396.999-456.419 0-254.491 206.307-460.801 460.8-460.801z" />
<glyph unicode="&#xe624;" glyph-name="weather-rain-hail" data-tags="weather-rain-hail" d="M77.050 319.749c13.997 13.998 36.704 13.998 50.7 0s13.996-36.705 0-50.698l-51.2-51.2c-13.997-13.998-36.704-13.998-50.7 0-13.996 13.993-13.996 36.7 0 50.698l51.2 51.2zM537.851 780.55c13.998 13.997 36.705 13.997 50.698 0 13.998-13.997 13.998-36.704 0-50.7l-358.398-358.398c-13.997-13.998-36.704-13.998-50.7 0-13.997 13.993-13.997 36.7 0 50.698l358.401 358.401zM486.65 422.149c13.997 13.998 36.706 13.998 50.699 0 13.998-13.998 13.998-36.705 0-50.698l-51.199-51.2c-13.996-13.998-36.703-13.998-50.7 0-13.997 13.993-13.997 36.7 0 50.698l51.2 51.2zM947.451 882.95c13.998 13.997 36.705 13.997 50.698 0 13.998-13.997 13.998-36.704 0-50.7l-358.4-358.4c-13.993-13.996-36.7-13.996-50.698 0s-13.998 36.704 0 50.7l358.4 358.4zM486.65 114.949c13.997 13.998 36.706 13.998 50.699 0 13.998-13.998 13.998-36.705 0-50.698l-51.199-51.2c-13.996-13.998-36.703-13.998-50.7 0-13.997 13.993-13.997 36.7 0 50.698l51.2 51.2zM947.451 575.75c13.998 13.997 36.705 13.997 50.698 0 13.998-13.997 13.998-36.704 0-50.7l-358.4-358.398c-13.993-13.998-36.7-13.998-50.698 0-13.998 13.993-13.998 36.7 0 50.698l358.4 358.401z" />
<glyph unicode="&#xe625;" glyph-name="weather-rain" data-tags="weather-rain" d="M537.851 831.75c13.998 13.997 36.705 13.997 50.698 0 13.998-13.997 13.998-36.704 0-50.7l-460.798-460.798c-13.997-13.998-36.704-13.998-50.7 0-13.997 13.993-13.997 36.7 0 50.698l460.801 460.801zM896.251 882.95c13.998 13.997 36.705 13.997 50.698 0 13.998-13.997 13.998-36.704 0-50.7l-256-256c-13.993-13.996-36.7-13.996-50.698 0s-13.998 36.704 0 50.7l256 256zM537.851 524.55c13.998 13.997 36.705 13.997 50.698 0 13.998-13.997 13.998-36.704 0-50.7l-102.399-102.399c-13.996-13.998-36.703-13.998-50.7 0-13.997 13.993-13.997 36.7 0 50.698l102.401 102.401zM896.251 524.55c13.998 13.997 36.705 13.997 50.698 0 13.998-13.997 13.998-36.704 0-50.7l-460.799-460.799c-13.996-13.998-36.703-13.998-50.7 0-13.997 13.993-13.997 36.7 0 50.698l460.801 460.801z" />
<glyph unicode="&#xe626;" glyph-name="weather-rainbow" data-tags="weather-rainbow" d="M15.35 350.7v138.25c0 223.389 181.112 404.5 404.5 404.5 164.029-0.004 309.775-97.786 373.002-239.1l5.847-13.8 2.002-6.95c2.995-16.405-5.827-33.191-21.903-39.65-16.067-6.451-34.058-0.453-43.249 13.45l-3.348 6.45-4.803 11.3c-51.717 115.511-171.837 196.596-307.548 196.6-183.801 0-332.8-148.999-332.8-332.8v-138.25c-0.011-19.784-16.063-35.799-35.85-35.799s-35.839 16.015-35.85 35.799zM547.85 158.915c0 39.526 18.284 70.636 41.098 86.103 21.366 14.479 48.579 17.004 76.754-3.451 0.399-0.292 0.701-0.502 0.896-0.65-0.138 0.128-0.379 0.333-0.65 0.599 14.054-13.937 36.762-13.85 50.703 0.2 13.921 14.049 13.834 36.716-0.2 50.652l-4.552 4.050c-1.49 1.208-2.903 2.278-4.101 3.149-53.299 38.702-113.469 35.738-159.099 4.803-44.184-29.957-72.55-84.285-72.55-145.454 0.012-86.354 70.042-156.349 156.401-156.349h240.799c74.721 0.005 135.301 60.585 135.301 135.301v3.753c-0.005 25.933-8.197 51.2-23.352 72.248-33.787 46.915-95.539 64.169-148.746 41.549l-16-6.799-6.354-3.502c-13.727-9.462-19.374-27.556-12.6-43.5 7.752-18.207 28.79-26.691 47.002-18.949l16 6.799c22.374 9.508 48.343 2.227 62.551-17.5 6.364-8.842 9.795-19.451 9.8-30.346v-3.753c0-35.128-28.467-63.647-63.601-63.647h-240.799c-46.771 0-84.69 37.929-84.7 84.695zM666.701 240.768l0.097-0.051c0 0-0.102 0.123-0.2 0.2l0.102-0.148zM848.133 251.054c-8.909-17.684-1.802-39.178 15.872-48.046 17.679-8.863 39.199-1.72 48.113 15.964l-63.985 32.082zM665.119 298.834c4.495 30.756 17.838 56.955 36.408 73.825 17.807 16.164 42.092 25.416 74.086 20.818 33.48-4.818 57.754-26.573 70.892-55.706 13.553-30.044 13.261-63.642 1.628-86.717l32.020-16.020 31.964-16.061c22.922 45.486 20.654 101.996-0.251 148.347-21.32 47.263-63.995 88.204-125.885 97.102-53.11 7.635-98.913-8.167-132.654-38.816-32.973-29.957-52.669-72.387-59.126-116.572-2.862-19.584 10.711-37.76 30.3-40.576 19.584-2.806 37.755 10.803 40.617 30.377zM322.55 345.6v166.75c0.007 69.082 56.018 125.093 125.1 125.1 53.848 0 101.67-34.466 118.699-85.55l5.253-15.75c6.257-18.773-3.881-39.085-22.651-45.35-16.435-5.479-34.068 1.603-42.401 16.050l-2.95 6.6-5.25 15.8c-7.276 21.807-27.71 36.5-50.7 36.5-29.494-0.007-53.393-23.905-53.4-53.4v-166.75c0-19.794-16.056-35.85-35.85-35.85s-35.85 16.056-35.85 35.85z" />
<glyph unicode="&#xe627;" glyph-name="weather-snow" data-tags="weather-snow" d="M476.147 21.32v84.147l-66.8-66.801c-13.997-13.993-36.704-13.993-50.7 0-13.988 13.998-13.993 36.71 0 50.703l117.5 117.499v482.3l-117.5 117.5-4.6 5.6c-9.187 13.912-7.648 32.852 4.6 45.1 12.246 12.238 31.142 13.729 45.050 4.55l5.65-4.55 66.8-66.8v84.1c0 19.794 16.056 35.85 35.85 35.85 19.791 0 35.848-16.056 35.848-35.85v-84.1l66.801 66.8c13.998 13.985 36.705 13.985 50.703 0 13.993-13.993 13.988-36.703 0-50.7l-117.504-117.5v-482.3l117.504-117.499 4.598-5.652c9.175-13.906 7.639-32.804-4.598-45.051-13.998-13.993-36.705-13.993-50.703 0l-66.801 66.801v-84.147c-0.005-19.789-16.061-35.799-35.848-35.799-19.788 0-35.841 16.010-35.85 35.799zM815.196 154.399c5.105-19.103-6.252-38.717-25.349-43.848-19.113-5.12-38.769 6.195-43.899 25.298l69.248 18.55zM234.147 785.45c16.734 4.484 33.898-3.631 41.35-18.55l2.55-6.75 42.95-160.5 417.798-241.147 160.502 42.947c19.108 5.115 38.774-6.195 43.899-25.298 5.12-19.113-6.241-38.769-25.349-43.899l-91.3-24.453 72.899-42.097c17.126-9.902 22.989-31.816 13.102-48.952-9.897-17.142-31.811-22.999-48.952-13.102l-72.899 42.102 24.499-91.351-69.248-18.55-43.049 160.553-417.702 241.148-160.45-43c-19.111-5.121-38.767 6.195-43.9 25.3-5.121 19.111 6.197 38.766 25.3 43.9l91.3 24.5-72.85 42.050-5.9 4.25c-12.471 11.059-15.905 29.702-7.25 44.7 8.659 15 26.535 21.372 42.35 16.1l6.6-3 72.9-42.050-24.45 91.25-1.2 7.2c-0.993 16.627 9.79 32.209 26.5 36.7zM278.038 135.849c-5.133-19.103-24.789-30.418-43.9-25.298-19.097 5.13-30.409 24.745-25.3 43.848l69.2-18.55zM789.837 785.45c19.108-5.131 30.474-24.787 25.349-43.9l-24.448-91.2 72.852 42c17.142 9.897 39.050 4.042 48.947-13.1 9.892-17.135 4.024-39.048-13.102-48.95l-72.899-42.050 91.3-24.5c19.108-5.131 30.474-24.787 25.349-43.9-5.125-19.107-24.786-30.414-43.899-25.3l-160.497 43-417.753-241.148-43-160.553-69.2 18.55 24.45 91.351-72.9-42.102c-17.141-9.892-39.054-4.040-48.95 13.102-9.89 17.142-3.989 39.055 13.15 48.952l72.85 42.097-91.3 24.453-6.75 2.55c-14.919 7.45-23.034 24.612-18.55 41.349 4.491 16.712 20.073 27.489 36.7 26.501l7.2-1.203 160.45-42.947 417.752 241.147 42.998 160.5c5.135 19.104 24.791 30.421 43.899 25.3z" />
<glyph unicode="&#xe628;" glyph-name="weather-sun-cloud-drop" data-tags="weather-sun-cloud-drop" d="M445.85 684.25c51.516 9.945 107.981 3.906 160.348-27.45 45.030-26.961 84.618-71.231 115.604-135.050 67.236 20.84 128.179 13.658 177.198-13.6 56.013-31.155 92.529-86.333 104.899-145.198 12.411-59.069 1.014-124.508-42.348-175.35-43.658-51.185-115.359-82.652-213.852-82.652-19.789 0.005-35.85 16.061-35.85 35.85 0 19.794 16.061 35.845 35.85 35.85 83.256 0 132.598 26.148 159.299 57.452 26.993 31.642 35.256 73.61 26.752 114.099-8.55 40.673-33.562 77.251-69.601 97.3-35.036 19.478-84.465 25.533-147.098-1.853-8.878-3.876-18.934-4.014-27.899-0.348-8.97 3.671-16.087 10.812-19.702 19.8-28.308 70.514-64.425 110.864-100.050 132.2-35.446 21.224-73.59 25.57-109.95 18.55-36.811-7.11-71.418-25.876-97.45-50.1-26.435-24.603-41.079-51.947-43.6-74.45-2.197-19.667-19.933-33.841-39.6-31.65-122.072 13.606-185.481-60.558-191.3-131.849-2.964-36.398 8.738-72.904 36.15-100.403 27.283-27.361 73.252-48.85 144.050-48.748 19.794 0.031 35.871-16.005 35.9-35.799s-16.007-35.871-35.8-35.901c-85.67-0.118-151.437 26.26-194.9 69.852-43.338 43.474-61.388 101.079-56.85 156.8 8.579 105.308 96.624 201.31 238.95 199.248 11.211 31.884 32.358 61.344 58.15 85.35 35.064 32.635 81.651 58.19 132.7 68.050zM870.651 806.15c13.998 13.996 36.705 13.996 50.698 0 13.998-13.997 13.998-36.704 0-50.7l-25.6-25.6c-13.993-13.996-36.7-13.996-50.698 0s-13.998 36.704 0 50.7l25.6 25.6zM688.65 832v25.6c0 15.553 12.6 28.15 28.15 28.15 15.555 0 28.15-12.597 28.15-28.15v-25.6c0-15.553-12.595-28.15-28.15-28.15-15.549 0-28.15 12.597-28.15 28.15zM496.544 865.162c16.864 10.366 38.951 5.096 49.314-11.766l18.959-30.842c10.368-16.863 5.1-38.95-11.766-49.316-16.86-10.366-38.948-5.096-49.314 11.766l-18.96 30.842c-10.366 16.862-5.096 38.949 11.766 49.316zM715.914 787.293c64.768-10.805 114.442-51.47 140.232-107.439 25.6-55.56 27.069-124.427 0.978-193.193-7.030-18.494-27.75-27.794-46.249-20.773-18.493 7.029-27.796 27.748-20.777 46.248 20.209 53.265 17.428 101.917 0.927 137.725-16.317 35.402-46.607 59.986-86.907 66.709-84.828 14.15-139.5-39.007-160.251-78.198-9.272-17.482-30.971-24.141-48.461-14.88-17.482 9.268-24.141 30.971-14.88 48.459 29.768 56.196 110.076 136.245 235.388 115.342zM640 163.482c0-69.079-57.308-125.082-128-125.082s-128 56.003-128 125.082c0 68.536 40.853 148.516 104.593 177.116 14.859 6.671 31.958 6.671 46.816 0 63.739-28.6 104.591-108.58 104.591-177.116zM419.85 163.502c0-48.512 40.467-89.252 92.15-89.252 51.681 0 92.15 40.74 92.15 89.252-0.005 27.566-8.361 58.644-23.752 85.847-15.427 27.269-36.419 48.123-59.648 58.552-5.524 2.478-11.975 2.478-17.5 0-23.229-10.429-44.224-31.283-59.65-58.552-15.388-27.203-23.746-58.281-23.75-85.847zM348.15 163.502c0.004 40.95 12.090 84.096 33.050 121.149 20.93 36.992 52.202 70.472 92.7 88.648 24.192 10.854 52.006 10.854 76.198 0 40.499-18.176 71.772-51.656 92.703-88.648 20.961-37.053 33.044-80.2 33.050-121.149 0-89.651-74.148-160.952-163.85-160.952s-163.85 71.301-163.85 160.952z" />
<glyph unicode="&#xe629;" glyph-name="weather-sun-cloud-fog" data-tags="weather-sun-cloud-fog" d="M844.8 202.25l7.204-0.753c16.338-3.333 28.646-17.772 28.646-35.098s-12.308-31.764-28.646-35.098l-7.204-0.753h-691.198c-19.794 0-35.85 16.056-35.85 35.85s16.056 35.85 35.85 35.85h691.198zM665.6 74.25l7.204-0.753c16.338-3.333 28.646-17.772 28.646-35.098s-12.308-31.764-28.646-35.098l-7.204-0.753h-307.198c-19.794 0-35.85 16.056-35.85 35.85s16.056 35.85 35.85 35.85h307.198zM531.712 671.95c29.768 56.196 110.090 136.252 235.402 115.35 64.768-10.805 114.458-51.481 140.247-107.45 25.595-55.558 27.044-124.437 0.952-193.2-2.033-5.335-5.325-9.767-9.252-13.4 66.683-51.628 94.986-155.41 56.003-233.398l-881.202 3.348c-66.55 123.29 16.157 307.129 211.8 250.050 9.535 84.566 126.396 176.362 242.348 156.9-1.029 7.238 0.020 14.848 3.702 21.8zM755.313 716.55c-84.823 14.149-139.494-39.009-160.251-78.2-1.874-3.535-4.393-6.493-7.148-9.1 46.474-25.562 89.549-73.71 121.6-152.8 47.667 27.594 91.735 33.603 129.649 25.2 0.22 3.501 0.84 7.050 2.15 10.5 20.198 53.257 17.398 101.896 0.901 137.7-16.317 35.402-46.602 59.978-86.902 66.7zM921.861 806.15c13.998 13.991 36.705 13.994 50.703 0 13.988-13.995 13.988-36.705 0-50.7l-25.6-25.6c-13.998-13.994-36.705-13.991-50.703 0-13.993 13.997-13.993 36.704 0 50.7l25.6 25.6zM547.763 865.15c14.735 9.056 33.449 6.179 44.851-5.95l4.449-5.8 18.949-30.85 3.149-6.55c5.688-15.654-0.159-33.682-14.899-42.75-14.746-9.064-33.5-6.191-44.902 5.95l-4.398 5.8-19 30.85-3.149 6.55c-5.693 15.657 0.2 33.684 14.95 42.75zM768.010 893.45c19.789-0.006 35.85-16.060 35.85-35.85v-25.6c0-19.79-16.061-35.844-35.85-35.85-19.794 0-35.85 16.056-35.85 35.85v25.6c0 19.794 16.056 35.85 35.85 35.85z" />
<glyph unicode="&#xe62a;" glyph-name="weather-sun-cloud-hail" data-tags="weather-sun-cloud-hail" d="M483.851 38.4v51.2c0 15.555 12.597 28.15 28.149 28.15 15.555 0 28.15-12.595 28.15-28.15v-51.2c0-15.555-12.595-28.15-28.15-28.15-15.551 0-28.149 12.595-28.149 28.15zM927.304 800.7c10.998 10.997 28.8 10.997 39.798 0s10.998-28.803 0-39.8l-25.6-25.6c-10.998-10.997-28.8-10.997-39.798 0s-10.998 28.803 0 39.8l25.6 25.6zM739.85 832v25.6c0 15.553 12.6 28.15 28.15 28.15 15.555 0 28.15-12.597 28.15-28.15v-25.6c0-15.553-12.595-28.15-28.15-28.15-15.549 0-28.15 12.597-28.15 28.15zM551.782 858.596c13.251 8.145 30.566 4.013 38.712-9.236l18.959-30.842c8.146-13.249 4.014-30.568-9.236-38.713-13.245-8.145-30.566-4.013-38.712 9.236l-18.959 30.842c-8.146 13.249-4.014 30.569 9.236 38.713zM765.85 779.698c62.147-10.367 109.752-49.276 134.528-103.039 24.627-53.441 26.214-120.122 0.753-187.226-5.514-14.535-21.75-21.857-36.285-16.352-14.536 5.515-21.857 21.749-16.353 36.285 20.844 54.929 18.181 105.765 0.707 143.693-17.331 37.608-49.69 63.948-92.616 71.108-89.16 14.874-146.596-41.162-168.315-82.175-7.276-13.744-24.3-18.978-38.042-11.7-13.747 7.279-18.98 24.3-11.699 38.044 28.795 54.375 106.337 131.546 227.323 111.364zM450.888 676.697c50.222 9.611 105.077 3.771 156.001-26.45 45.097-26.766 85.12-71.483 116.25-137.25 63.288 22.252 121.713 14.975 168.847-11.7 52.716-29.837 88.914-82.572 102.702-139.051 13.824-56.643 5.693-119.828-34.35-169.149-40.3-49.628-108.974-80.451-206.5-80.451h-85.949c0.077 0.845 0.251 1.684 0.251 2.55v76.8c0 15.555-12.6 28.15-28.15 28.15-15.549-0.005-28.15-12.6-28.15-28.15v-76.8c0-0.86 0.174-1.705 0.246-2.55h-72.197c0.077 0.845 0.251 1.684 0.251 2.55v179.2c0 15.555-12.6 28.15-28.151 28.15-15.546-0.005-28.15-12.6-28.15-28.15v-179.2c0-0.86 0.174-1.705 0.25-2.55h-72.2c0.076 0.845 0.25 1.684 0.25 2.55v76.8c0 15.555-12.598 28.15-28.15 28.15-15.546-0.005-28.15-12.6-28.15-28.15v-76.8c0-0.86 0.174-1.705 0.25-2.55h-86.4c-84.7-0.113-148.847 25.687-190.9 67.502-41.968 41.738-59.513 97.121-55.1 150.851 8.445 102.728 96.063 196.773 238.85 192.049 10.218 32.468 31.638 62.859 58.45 87.6 34.376 31.715 80.038 56.501 129.9 66.050z" />
<glyph unicode="&#xe62b;" glyph-name="weather-sun-cloud-light" data-tags="weather-sun-cloud-light" d="M638.408 908.15v-32c0-19.2 12.8-32 32-32s32 12.8 32 32v32c0 19.2-12.8 32-32 32s-32-12.8-32-32zM897.608 770.55l22.4 22.4c12.8 12.8 12.8 32 0 44.8s-32 12.8-44.8 0l-22.4-22.4c-12.8-12.8-12.8-32 0-44.8 6.4-6.4 16-9.6 22.4-9.6s16 3.2 22.4 9.6zM990.408 620.15h-32c-19.2 0-32-12.8-32-32s12.8-32 32-32h32c19.2 0 32 12.8 32 32s-12.8 32-32 32zM420.806 837.75c-12.8-12.8-12.8-32 0-44.8l22.4-22.4c6.4-6.4 16-9.6 22.4-9.6s16 3.2 22.4 9.6c12.8 12.8 12.8 32 0 44.8l-22.4 22.4c-12.8 12.8-32 12.8-44.8 0zM881.608 511.35c9.6 25.601 12.8 51.2 12.8 76.8 0 124.8-99.2 224-224 224-102.4 0-188.802-67.2-217.602-163.2-83.2-9.6-160-60.8-201.6-134.4-16 3.2-32 6.4-48 6.4-112 0-204.8-92.8-204.8-204.8 0-115.2 92.8-208 208-208h150.4c-9.6 25.6-6.4 57.6 6.4 80l96 160c19.2 28.8 51.2 48 83.202 48 16 0 35.2-3.2 48-12.8 22.4-12.8 38.4-35.2 44.8-57.6 6.4-25.6 3.2-51.2-9.6-73.6l-12.8-22.4c19.2-9.6 35.2-22.4 48-41.6 12.8-25.6 16-54.4 6.4-80h150.4c115.2 0 208 92.8 208 208-3.2 89.6-64 166.4-144 195.2zM814.408 520.95c-28.8 0-57.6-6.4-83.2-19.2-41.6 80-118.4 134.4-208 147.2 22.4 57.6 83.2 99.2 147.2 99.2 89.6 0 160-70.4 160-160 0-22.4-6.4-44.8-16-67.2zM558.408 328.95c-16 9.6-35.2 3.2-44.8-9.6l-96.002-160c-6.4-9.6-6.4-22.4 0-32s16-16 28.8-16h70.402l-67.202-112c-9.6-16-3.2-35.2 9.6-44.8 6.4-6.4 12.8-6.4 19.2-6.4 9.6 0 22.4 6.4 28.8 16l96.002 160c6.4 9.6 6.4 22.4 0 32s-16 16-28.8 16h-70.402l67.202 112c6.4 16 3.2 35.2-12.8 44.8z" />
<glyph unicode="&#xe62c;" glyph-name="weather-sun-cloud-rain" data-tags="weather-sun-cloud-rain" d="M544 128v-160c0-19.2-12.805-31.995-32-32-19.2 0-32 12.8-32 32v160h64zM416 128v-64c0-19.2-12.804-31.995-32-32-19.2 0-32 12.8-32 32v64h64zM672 128v-64c0-19.2-12.805-31.995-32-32-19.2 0-32 12.8-32 32v64h64zM672 832c124.795-0.003 224-99.202 224-224 0-25.599-3.2-51.201-12.8-76.8 79.995-28.802 140.8-105.6 140.8-195.2 0-115.2-92.805-207.995-208-208h-144v192c0 19.2-12.805 31.995-32 32-19.2 0-32-12.8-32-32v-192h-64v96c0 19.2-12.805 31.995-32 32-19.2 0-32-12.8-32-32v-96h-64v192c0 19.2-12.804 31.995-32 32-19.2 0-32-12.8-32-32v-192h-144c-115.2 0-208 96-208 208s92.8 204.8 204.8 204.8c15.998-0.001 32.002-3.201 48-6.4 41.601 73.598 118.401 124.8 201.6 134.4 28.801 95.999 115.2 163.2 217.6 163.2zM672 768c-64 0-124.8-41.601-147.2-99.2 89.595-12.802 166.4-67.202 208-147.2 25.6 12.798 54.4 19.2 83.2 19.2 9.6 22.399 16 44.801 16 67.2 0 89.598-70.405 159.997-160 160zM992 640c19.195-0.003 32-12.802 32-32s-12.805-31.997-32-32h-32c-19.2 0-32 12.8-32 32s12.8 32 32 32h32zM422.4 857.6c12.8 12.797 32.001 12.799 44.8 0l22.4-22.4c12.796-12.799 12.796-32.001 0-44.8-6.398-6.398-16-9.598-22.4-9.6-6.399 0-16 3.202-22.4 9.6l-22.4 22.4c-12.8 12.8-12.8 32 0 44.8zM876.8 857.6c12.8 12.797 32 12.799 44.8 0 12.795-12.799 12.795-32.001 0-44.8l-22.4-22.4c-6.4-6.398-16-9.598-22.4-9.6-6.4 0-16 3.202-22.4 9.6-12.8 12.8-12.8 32 0 44.8l22.4 22.4zM672 960c19.195-0.003 32-12.802 32-32v-32c0-19.198-12.805-31.997-32-32-19.2 0-32 12.8-32 32v32c0 19.2 12.8 32 32 32z" />
<glyph unicode="&#xe62d;" glyph-name="weather-sun-cloud-snow-54" data-tags="weather-sun-cloud-snow-54" d="M671.99 960c-19.2 0-32-12.8-32-32v-32c0-19.2 12.8-32 32-32s32 12.8 32 32v32c0 19.2-12.8 32-32 32zM876.79 780.8c9.6 0 16 3.2 22.4 9.6l22.4 22.4c12.8 12.8 12.8 32 0 44.8s-32 12.8-44.8 0l-22.4-22.4c-12.8-12.8-12.8-32 0-44.8 6.4-6.4 12.8-9.6 22.4-9.6zM991.99 640h-32c-19.2 0-32-12.8-32-32s12.8-32 32-32h32c19.2 0 32 12.8 32 32s-12.8 32-32 32zM422.388 857.6c-12.8-12.8-12.8-32 0-44.8l22.4-22.4c6.4-6.4 16-9.6 22.4-9.6s16 3.2 22.4 9.6c12.8 12.8 12.8 32 0 44.8l-22.4 22.4c-12.8 12.8-32 12.8-44.8 0zM883.19 531.2c9.6 25.6 12.8 51.2 12.8 76.8 0 124.8-99.2 224-224 224-102.4 0-188.802-67.2-217.602-163.2-83.2-9.6-160-60.8-201.6-134.4-16 3.2-32 6.4-48 6.4-112 0-204.8-92.8-204.8-204.8 0-115.2 92.8-208 208-208h272v32c0 19.2 12.8 32 32 32 19.202 0 32.002-12.8 32.002-32v-32h272c115.2 0 208 92.8 208 208 0 89.6-60.8 166.4-140.8 195.2zM415.988 224c0-19.2-12.8-32-32-32s-32 12.8-32 32v32c0 19.2 12.8 32 32 32s32-12.8 32-32v-32zM671.99 224c0-19.2-12.8-32-32-32s-32 12.8-32 32v32c0 19.2 12.8 32 32 32s32-12.8 32-32v-32zM815.99 540.8c-28.8 0-57.6-6.4-83.2-19.2-41.6 80-118.4 134.4-208 147.2 22.4 57.6 83.2 99.2 147.2 99.2 89.6 0 160-70.4 160-160 0-22.4-6.4-44.8-16-67.2zM511.988 32c-19.2 0-32-12.8-32-32v-32c0-19.2 12.8-32 32-32 19.202 0 32.002 12.8 32.002 32v32c0 19.2-12.8 32-32.002 32zM383.988 96c-19.2 0-32-12.8-32-32v-32c0-19.2 12.8-32 32-32s32 12.8 32 32v32c0 19.2-12.8 32-32 32zM639.99 96c-19.2 0-32-12.8-32-32v-32c0-19.2 12.8-32 32-32s32 12.8 32 32v32c0 19.2-12.8 32-32 32z" />
<glyph unicode="&#xe62e;" glyph-name="weather-sun-cloud-snow-55" data-tags="weather-sun-cloud-snow-55" d="M636.795 896v-32c0-19.2 12.8-32 32-32s32 12.8 32 32v32c0 19.2-12.8 32-32 32s-32-12.8-32-32zM873.595 748.8c9.6 0 16 3.2 22.4 9.6l22.4 22.4c12.8 12.8 12.8 32 0 44.8s-32 12.8-44.8 0l-22.4-22.4c-12.8-12.8-12.8-32 0-44.8 6.4-6.4 12.8-9.6 22.4-9.6zM988.795 608h-32c-19.2 0-32-12.8-32-32s12.8-32 32-32h32c19.2 0 32 12.8 32 32s-12.8 32-32 32zM419.194 825.6c-12.8-12.8-12.8-32 0-44.8l22.4-22.4c6.4-6.4 16-9.6 22.4-9.6s16 3.2 22.4 9.6c12.8 12.8 12.8 32 0 44.8l-22.4 22.4c-12.8 12.8-32 12.8-44.8 0zM879.995 499.2c9.6 25.6 12.8 51.2 12.8 76.8 0 124.8-99.2 224-224 224-102.4 0-188.801-67.2-217.601-163.2-83.2-9.6-160-60.8-201.6-134.4-16 3.2-32 6.4-48 6.4-112 0-204.8-92.8-204.8-204.8 0-115.2 92.8-208 208-208h105.6c3.2 12.8 9.6 22.4 19.2 32-25.6 28.8-32 73.6-12.8 112 16 28.8 48 48 83.2 48 6.4 0 12.8 0 19.2-3.2 12.8 38.4 48 67.2 92.8 67.2 44.801 0 80.001-28.8 92.801-67.2 6.4 0 12.8 3.2 19.2 3.2 35.2 0 67.2-19.2 83.2-48 22.4-38.4 16-83.2-12.8-112 9.6-9.6 16-19.2 19.2-32h105.6c115.2 0 208 92.8 208 208-6.4 89.6-67.2 166.4-147.2 195.2zM812.795 508.8c-28.8 0-57.6-6.4-83.2-19.2-41.6 80-118.4 134.4-208 147.2 22.4 57.6 83.2 99.2 147.2 99.2 89.6 0 160-70.4 160-160 0-22.4-6.4-44.8-16-67.2zM646.395 208c-9.6 16-28.8 19.2-44.8 12.8l-64-35.2v70.4c0 19.2-12.8 32-32.001 32-19.2 0-32-12.8-32-32v-73.6l-64 35.2c-16 9.6-35.2 3.2-44.8-12.8s-3.2-35.2 12.8-44.8l64-35.2-64-35.2c-16-9.6-19.2-28.8-12.8-44.8 6.4-9.6 16-16 28.8-16 6.4 0 9.6 0 16 3.2l64 35.2v-67.2c0-19.2 12.8-32 32-32s32.001 12.8 32.001 32v73.6l64-35.2c6.4-3.2 9.6-3.2 16-3.2 9.6 0 22.4 6.4 28.8 16 9.6 16 3.2 35.2-12.8 44.8l-60.8 32 64 35.2c12.8 9.6 19.2 28.8 9.6 44.8z" />
<glyph unicode="&#xe62f;" glyph-name="weather-sun-cloud" data-tags="weather-sun-cloud" d="M350.75 803.6c0.735-0.037 1.467-0.154 2.2-0.2 0.668-0.041 1.335-0.102 2-0.15 0.683-0.050 1.369-0.093 2.050-0.15 2.144-0.18 4.277-0.398 6.4-0.65 1.522-0.181 3.039-0.382 4.55-0.6 0.515-0.074 1.036-0.121 1.55-0.2 1.038-0.159 2.067-0.374 3.1-0.55 1.103-0.188 2.204-0.392 3.3-0.6 1.386-0.262 2.775-0.507 4.15-0.8 0.601-0.128 1.201-0.266 1.8-0.4 1.22-0.273 2.439-0.553 3.65-0.85 1.155-0.283 2.303-0.595 3.45-0.9 1.001-0.266 2.006-0.518 3-0.8 1.453-0.412 2.912-0.803 4.35-1.25 1.108-0.344 2.202-0.736 3.3-1.1 1.016-0.336 2.042-0.646 3.050-1 2.274-0.798 4.518-1.667 6.75-2.55 0.682-0.27 1.373-0.523 2.050-0.8 3.767-1.542 7.463-3.222 11.1-5 0.756-0.37 1.5-0.77 2.25-1.15 2.532-1.282 5.036-2.608 7.5-4 0.766-0.433 1.541-0.856 2.3-1.3 3.897-2.276 7.692-4.704 11.4-7.25 0.369-0.253 0.783-0.444 1.15-0.7l-0.050-0.050c1.667-1.162 3.324-2.336 4.95-3.55 0.972-0.727 1.943-1.456 2.9-2.2 5.585-4.345 10.956-8.958 16-13.9 4.877-4.777 9.43-9.867 13.75-15.15 15.49 2.635 31.416 4.050 47.652 4.050 135.844-0.014 249.426-96.038 274.447-223.85 98.519-42.642 167.7-140.038 167.7-253.748-0.015-153.247-125.619-276.746-279.649-276.751h-426.651c-120.379 0.005-218.7 96.558-218.7 216.55 0.006 116.024 91.938 210.161 206.85 216.248-2.032 12.355-3.228 24.975-3.55 37.801-57.487 31.367-96.644 92.321-96.65 162.55 0 54.772 23.801 103.997 61.6 137.9 3.727 3.341 7.608 6.514 11.6 9.55 0.527 0.401 1.018 0.855 1.55 1.25 1.505 1.119 3.060 2.176 4.6 3.25 0.355 0.248 0.742 0.504 1.1 0.75 1.942 1.334 3.906 2.639 5.9 3.9 1.175 0.743 2.357 1.483 3.55 2.2 0.761 0.457 1.532 0.903 2.3 1.35 3.288 1.913 6.637 3.737 10.050 5.45l3.2 1.6c0.854 0.408 1.739 0.755 2.6 1.15 2.228 1.023 4.475 2.015 6.75 2.95 0.78 0.321 1.565 0.639 2.35 0.95 1.509 0.596 3.022 1.192 4.55 1.75 1.468 0.536 2.965 1 4.45 1.5 0.349 0.117 0.7 0.235 1.050 0.35 0.735 0.242 1.462 0.517 2.2 0.75 3.26 1.029 6.565 1.949 9.9 2.8 0.414 0.106 0.835 0.198 1.25 0.3 0.266 0.066 0.534 0.136 0.8 0.2 0.682 0.166 1.365 0.342 2.050 0.5 3.906 0.901 7.854 1.7 11.85 2.35 0.464 0.076 0.935 0.128 1.4 0.2 0.199 0.031 0.4 0.070 0.6 0.1 0.397 0.060 0.802 0.093 1.2 0.15 3.798 0.549 7.631 0.985 11.5 1.3 0.465 0.038 0.934 0.066 1.4 0.1 4.568 0.337 9.196 0.6 13.85 0.6l9.4-0.25zM137.95 508.65c13.994 13.986 36.705 13.986 50.7 0 13.994-13.994 13.989-36.703 0-50.7l-9.25-9.25c-13.999-13.971-36.711-13.986-50.7 0-13.981 13.989-13.97 36.704 0 50.7l9.25 9.25zM328.4 731.4c-3.694-0.418-7.326-1.037-10.9-1.8-0.656-0.14-1.298-0.349-1.95-0.5-2.747-0.638-5.484-1.266-8.15-2.1-3.282-1.027-6.505-2.191-9.65-3.5-0.812-0.338-1.597-0.744-2.4-1.1-2.343-1.041-4.643-2.158-6.9-3.35-0.719-0.379-1.441-0.756-2.15-1.15-2.488-1.383-4.931-2.839-7.3-4.4-30.811-20.294-51.15-55.198-51.15-94.85 0.005-32.127 13.387-61.134 34.9-81.8 21.254 76.275 74.647 139.173 144.7 173.85-1.777 1.273-3.502 2.625-5.35 3.8-1.833 1.166-3.698 2.289-5.6 3.35-1.073 0.599-2.156 1.186-3.25 1.75-2.802 1.445-5.668 2.788-8.6 4-3.493 1.443-7.093 2.656-10.75 3.75-2.887 0.863-5.819 1.616-8.8 2.25-0.88 0.187-1.762 0.383-2.65 0.55-3.366 0.632-6.783 1.122-10.25 1.45-3.572 0.339-7.191 0.549-10.85 0.55-4.374 0-8.705-0.268-12.95-0.75zM106.65 675.85c19.794 0 35.85-16.056 35.85-35.85s-16.056-35.85-35.85-35.85h-21.35c-19.778 0.019-35.8 16.068-35.8 35.85s16.022 35.831 35.8 35.85h21.35zM128.7 831.3c13.989 13.988 36.702 13.972 50.7 0l9.25-9.25c13.988-13.997 13.994-36.706 0-50.7-13.994-13.986-36.706-13.986-50.7 0l-9.25 9.25c-13.97 13.996-13.981 36.711 0 50.7zM460.55 831.3c13.989 13.988 36.702 13.976 50.7 0 13.996-13.996 13.996-36.704 0-50.7l-9.2-9.25c-13.996-13.986-36.706-13.989-50.7 0-13.993 13.993-13.987 36.703 0 50.7l9.2 9.25zM320 910.5c19.794 0 35.85-16.056 35.85-35.85v-21.35c-0.018-19.779-16.067-35.8-35.85-35.8-19.782 0.002-35.832 16.022-35.85 35.8v21.35c0 19.793 16.058 35.848 35.85 35.85z" />
<glyph unicode="&#xe630;" glyph-name="weather-sun-fog-29" data-tags="weather-sun-fog-29" d="M476.15 704v153.6c0 19.794 16.056 35.85 35.85 35.85s35.85-16.056 35.85-35.85v-153.6c0-19.794-16.056-35.85-35.85-35.85s-35.85 16.056-35.85 35.85zM812.442 696.803c13.998 13.996 36.705 13.993 50.703 0 13.998-13.996 13.993-36.703 0-50.7l-72.402-72.4c-13.993-13.997-36.7-13.996-50.698 0-13.993 13.997-13.993 36.705 0 50.7l72.397 72.4zM153.6 381.45l7.2-0.753c16.342-3.333 28.65-17.772 28.65-35.098s-12.308-31.764-28.65-35.098l-7.2-0.753h-102.4c-19.794 0-35.85 16.056-35.85 35.85s16.056 35.85 35.85 35.85h102.4zM160.844 696.806c12.241 12.24 31.14 13.77 45.050 4.6l5.65-4.6 72.4-72.4c13.996-13.996 13.996-36.703 0-50.7-12.243-12.243-31.14-13.776-45.050-4.6l-5.65 4.6-72.4 72.4-4.6 5.65c-9.17 13.91-7.641 32.809 4.6 45.050zM972.8 381.45l7.199-0.753c16.343-3.333 28.652-17.772 28.652-35.098s-12.308-31.764-28.652-35.098l-7.199-0.753h-102.4c-19.794 0-35.85 16.056-35.85 35.85s16.056 35.85 35.85 35.85h102.4zM716.8 74.25l7.199-0.753c16.343-3.333 28.652-17.772 28.652-35.098s-12.308-31.764-28.652-35.098l-7.199-0.753h-409.6c-19.794 0-35.85 16.056-35.85 35.85s16.056 35.85 35.85 35.85h409.6zM972.8 227.85l7.199-0.753c16.343-3.333 28.652-17.772 28.652-35.098s-12.308-31.764-28.652-35.098l-7.199-0.753h-921.6c-19.794 0-35.85 16.056-35.85 35.85s16.056 35.85 35.85 35.85h921.6zM706.488 376.54l-10.168 30.5c-19.338 58.016-64.865 103.541-122.88 122.88-39.88 13.294-82.999 13.294-122.88 0-58.016-19.339-103.541-64.864-122.88-122.88l-10.166-30.5c-5.074-15.222 6.256-30.94 22.302-30.94h344.37c16.046 0 27.377 15.718 22.303 30.94z" />
<glyph unicode="&#xe631;" glyph-name="weather-sun-fog-30" data-tags="weather-sun-fog-30" d="M595.999 73.498c16.343-3.333 28.652-17.772 28.652-35.098s-12.308-31.764-28.652-35.098l-7.199-0.753h-153.6c-19.793 0-35.85 16.056-35.85 35.85s16.056 35.85 35.85 35.85h153.6l7.199-0.753zM723.999 252.698c16.343-3.333 28.652-17.772 28.652-35.098s-12.308-31.764-28.652-35.098l-7.199-0.753h-409.6c-19.793 0-35.85 16.056-35.85 35.85s16.056 35.85 35.85 35.85h409.6l7.199-0.753zM512 895.8c161.142 0 291.84-130.573 291.85-291.65-0.005-63.705-18.867-123.070-53.1-171.5h170.849l7.199-0.753c16.343-3.333 28.652-17.772 28.652-35.098s-12.308-31.764-28.652-35.098l-7.199-0.753h-819.2c-19.793 0-35.85 16.056-35.85 35.85s16.056 35.85 35.85 35.85h169.85c-34.153 48.253-52.097 107.388-52.1 171.5 0.012 161.077 130.707 291.65 291.85 291.65z" />
<glyph unicode="&#xe632;" glyph-name="weather-sun-fog-43" data-tags="weather-sun-fog-43" d="M690.304 139.402c43.689 43.684 112.102 37.207 152.653-1.352 18.499-17.592 38.717-34.232 58.199-46.249 20.255-12.493 35.84-17.551 46.049-17.551 19.794-0.005 35.85-16.061 35.85-35.85 0-17.326-12.314-31.764-28.652-35.098l-7.199-0.753-11.197 0.599c-26.025 2.729-51.154 14.484-72.499 27.653-25.16 15.519-49.352 35.707-69.955 55.296-16.686 15.872-40.381 14.761-52.547 2.601-37.832-37.832-86.579-62.899-139.351-71.7l-31.201-5.197c-38.692-6.451-78.205-6.451-116.899 0l-41.1 6.851c-46.354 7.726-89.12 29.768-122.35 62.996-4.902 4.905-11.858 7.188-20.8 5.75-9.395-1.51-19.202-7.112-25.75-15.8-39.442-52.321-82.844-71.721-119.75-75.197-17.755-1.674-32.766 0.435-43.55 3.098-5.402 1.336-9.829 2.852-13.1 4.101-1.625 0.62-2.988 1.183-4.050 1.649-0.531 0.236-1.015 0.471-1.4 0.65-0.183 0.087-0.351 0.179-0.5 0.251-0.075 0.036-0.181 0.067-0.25 0.102l-0.1 0.046c-0.020 0.015 0.101 0.404 15.95 32.102l-16.050-32.051c-17.69 8.858-24.849 30.403-16 48.102 8.846 17.659 30.319 24.837 48 16.051 0.841-0.323 2.458-0.85 4.7-1.403 4.521-1.116 11.361-2.13 19.65-1.352 15.206 1.439 40.866 9.416 69.2 47.002 33.24 44.093 106.141 65.859 154.45 17.551 22.668-22.666 51.879-37.683 83.5-42.952l41.1-6.851c30.884-5.146 62.418-5.146 93.302 0l31.247 5.202c38.036 6.344 73.134 24.433 100.398 51.702zM690.304 344.202c43.689 43.684 112.102 37.207 152.653-1.352 18.499-17.592 38.717-34.232 58.199-46.249 20.255-12.493 35.84-17.551 46.049-17.551 19.794-0.005 35.85-16.061 35.85-35.85 0-17.326-12.314-31.764-28.652-35.098l-7.199-0.753-11.197 0.599c-26.025 2.729-51.154 14.484-72.499 27.653-25.16 15.519-49.352 35.707-69.955 55.296-16.686 15.872-40.381 14.761-52.547 2.601-37.832-37.832-86.579-62.899-139.351-71.7l-31.201-5.197c-38.692-6.451-78.205-6.451-116.899 0l-41.1 6.851c-46.354 7.726-89.12 29.768-122.35 62.996-4.902 4.905-11.858 7.188-20.8 5.75-9.395-1.51-19.202-7.112-25.75-15.8-39.442-52.321-82.844-71.721-119.75-75.197-17.755-1.674-32.766 0.435-43.55 3.098-5.402 1.336-9.829 2.852-13.1 4.101-1.625 0.62-2.988 1.183-4.050 1.649-0.531 0.236-1.015 0.471-1.4 0.65-0.183 0.087-0.351 0.179-0.5 0.251-0.075 0.036-0.181 0.067-0.25 0.102l-0.1 0.046c-0.020 0.015 0.101 0.404 15.95 32.102l-16.050-32.051c-17.69 8.858-24.849 30.403-16 48.102 8.846 17.659 30.319 24.837 48 16.051 0.841-0.323 2.458-0.85 4.7-1.403 4.521-1.116 11.361-2.13 19.65-1.352 15.206 1.439 40.866 9.416 69.2 47.002 33.24 44.093 106.141 65.859 154.45 17.551 22.668-22.666 51.879-37.683 83.5-42.952l41.1-6.851c30.884-5.146 62.418-5.146 93.302 0l31.247 5.202c38.036 6.344 73.134 24.433 100.398 51.702zM128.006 483.85c19.79-0.004 35.85-16.059 35.85-35.85 0-19.794-16.059-35.845-35.85-35.85h-42.65c-19.794 0-35.85 16.056-35.85 35.85s16.056 35.85 35.85 35.85h42.65zM512.005 688.65c142.316-0.003 270.223-85.84 289.449-209.65 6.118-39.433-26.895-66.845-59.049-66.85h-460.799c-32.155 0-65.168 27.412-59.050 66.85l2.1 11.5c25.116 117.601 149.475 198.15 287.349 198.15zM938.655 483.85c19.794 0 35.85-16.057 35.85-35.85s-16.056-35.85-35.85-35.85h-42.65c-19.789 0.005-35.85 16.061-35.85 35.85 0 19.791 16.061 35.846 35.85 35.85h42.65zM184.956 775.050c13.992 13.992 36.703 13.984 50.7 0l16.8-16.75c13.985-13.991 13.977-36.704 0-50.7-13.995-13.994-36.703-13.991-50.7 0l-16.8 16.75c-13.982 13.995-13.986 36.707 0 50.7zM788.306 775.050c13.993 13.99 36.705 13.985 50.698 0 13.998-13.996 13.998-36.704 0-50.7l-16.748-16.75c-13.998-13.996-36.705-13.996-50.698 0-13.988 13.998-13.993 36.707 0 50.7l16.748 16.75zM512.005 910.5c19.794-0.004 35.85-16.059 35.85-35.85v-42.65c-0.005-19.784-16.061-35.846-35.85-35.85-19.788 0-35.841 16.063-35.849 35.85v42.65c0 19.794 16.056 35.85 35.849 35.85z" />
<glyph unicode="&#xe633;" glyph-name="weather-sun" data-tags="weather-sun" d="M476.185 21.315v64c0 19.789 16.014 35.84 35.8 35.85 19.794 0 35.851-16.056 35.851-35.85v-64c-0.010-19.784-16.061-35.799-35.851-35.799-19.781 0.010-35.791 16.020-35.8 35.799zM235.834 221.466c13.912 9.196 32.8 7.649 45.050-4.598 13.997-13.998 13.996-36.654 0-50.652l-45.25-45.251c-13.996-13.998-36.653-13.998-50.65 0-13.994 13.998-13.996 36.654 0 50.652l45.25 45.251 5.6 4.598zM743.086 216.868c12.242 12.242 31.14 13.778 45.046 4.598l5.652-4.598 45.251-45.251 4.598-5.601c9.185-13.906 7.639-32.804-4.598-45.051-13.998-13.998-36.705-13.998-50.698 0l-45.251 45.251c-13.983 13.993-13.983 36.654 0 50.652zM149.335 483.815l7.2-0.7c16.338-3.332 28.642-17.78 28.65-35.1 0-19.794-16.056-35.851-35.85-35.851h-64c-19.794 0-35.85 16.056-35.85 35.851 0.009 19.786 16.062 35.8 35.85 35.8h64zM938.685 483.815c19.779-0.009 35.789-16.019 35.799-35.8 0-19.789-16.015-35.841-35.799-35.851h-64c-19.794 0-35.85 16.056-35.85 35.851 0.010 19.786 16.061 35.8 35.85 35.8h64zM184.934 775.066c12.239 12.239 31.141 13.767 45.050 4.6l5.65-4.6 45.25-45.25c13.997-13.997 13.997-36.704 0-50.7s-36.703-13.997-50.7 0l-45.25 45.25-4.6 5.65c-9.167 13.909-7.64 32.81 4.6 45.050zM793.984 779.665c13.906 9.176 32.804 7.629 45.051-4.6 13.998-13.997 13.998-36.704 0-50.7l-45.251-45.25c-13.993-13.991-36.654-13.986-50.652 0-13.993 13.997-13.993 36.704 0 50.7l45.251 45.25 5.601 4.6zM476.185 810.665v64c0 19.788 16.014 35.841 35.8 35.85 19.794 0 35.851-16.056 35.851-35.85v-64c0-19.794-16.056-35.85-35.851-35.85-19.786 0.009-35.8 16.061-35.8 35.85zM716.8 448c0-113.111-91.694-204.8-204.8-204.8-113.108 0-204.8 91.689-204.8 204.8 0 113.107 91.692 204.799 204.8 204.799 113.106 0 204.8-91.692 204.8-204.799z" />
<glyph unicode="&#xe634;" glyph-name="weather-wind" data-tags="weather-wind" d="M476.153 725.35c-0.009 39.103-31.697 70.791-70.8 70.8-39.111 0-70.841-31.691-70.85-70.8v-15.25c0-19.794-16.056-35.85-35.85-35.85-19.786 0.009-35.8 16.061-35.8 35.85v15.25c0.009 78.696 63.801 142.5 142.5 142.5 78.691-0.009 142.492-63.809 142.502-142.5 0-78.698-63.805-142.491-142.502-142.5h-277.35c-19.788 0-35.841 16.014-35.85 35.8 0 19.794 16.056 35.85 35.85 35.85h277.35c39.109 0.009 70.8 31.739 70.8 70.85zM604.17 213.315v21.35c0 19.794 16.056 35.85 35.85 35.85 19.784-0.010 35.799-16.061 35.799-35.85v-21.35c0.010-62.664 50.831-113.49 113.5-113.5 62.674 0 113.49 50.831 113.5 113.5 0 62.684-50.821 113.5-113.5 113.5h-618.651c-19.794 0-35.85 16.056-35.85 35.85s16.056 35.85 35.85 35.85h618.651c102.267 0 185.201-82.929 185.201-185.201-0.010-102.257-82.939-185.149-185.201-185.149-102.257 0.010-185.144 82.898-185.149 185.149zM902.835 639.984c0 62.681-50.816 113.5-113.5 113.5-62.679 0-113.495-50.82-113.495-113.5v-21.3c0-19.794-16.056-35.85-35.85-35.85-19.789 0.009-35.804 16.061-35.804 35.85v21.3c0 102.268 82.883 185.2 185.149 185.2 102.272 0 185.155-82.932 185.155-185.2-0.010-102.261-82.888-185.15-185.155-185.15h-703.997c-19.794 0-35.85 16.056-35.85 35.85 0.009 19.786 16.062 35.8 35.85 35.8h703.997c62.679 0 113.495 50.827 113.5 113.5z" />
<glyph unicode="&#xe717;" glyph-name="transportation-air-baloon" data-tags="transportation-air-baloon" d="M798.7 636.95c0 110.546-89.605 200.15-200.151 200.15h-173.098c-110.546 0-200.15-89.604-200.15-200.15 0.002-33.46 10.173-66.126 29.2-93.65l175.65-254h163.698l175.652 254c19.026 27.524 29.199 60.19 29.199 93.65zM869.699 619c-3.174-41.682-17.357-81.887-41.247-116.45l-181.704-262.852-3.896-4.946c-9.651-10.834-23.547-17.152-38.252-17.152h-185.2l-6.25 0.399c-14.412 1.766-27.532 9.595-35.9 21.699l-181.7 262.852c-23.892 34.563-38.075 74.768-41.25 116.45l-0.7 17.95c0 145.442 114.218 264.218 257.85 271.5l14 0.35h173.098c150.134 0 271.852-121.716 271.852-271.85l-0.701-17.95zM296.96 125.44c0 33.336 0 50.002 3.845 63.636 9.671 34.289 36.47 61.087 70.76 70.758 13.632 3.845 30.3 3.845 63.635 3.845h153.6c33.336 0 50.002 0 63.636-3.845 34.289-9.672 61.087-36.47 70.758-70.758 3.845-13.635 3.845-30.3 3.845-63.636s0-50.002-3.845-63.636c-9.672-34.289-36.47-61.087-70.758-70.758-13.635-3.845-30.3-3.845-63.636-3.845h-153.6c-33.336 0-50.003 0-63.635 3.845-34.29 9.672-61.089 36.47-70.76 70.758-3.845 13.635-3.845 30.3-3.845 63.636zM559.785 563.2c0 89.647-12.667 167.763-31.053 220.95-5.688 16.458-11.556 29.025-16.749 38.3-5.193-9.274-11.014-21.851-16.7-38.3-18.385-53.187-31.050-131.3-31.050-220.95s12.665-167.762 31.050-220.948c5.679-16.43 11.512-28.979 16.7-38.252 5.188 9.272 11.071 21.816 16.749 38.252 18.386 53.187 31.053 131.301 31.053 220.948zM630.835 527.85c-6.124-174.263-56.996-310.25-118.852-310.25-65.972 0.026-119.45 154.747-119.45 345.6s53.478 345.574 119.45 345.6c65.978 0 119.502-154.73 119.502-345.6l-0.65-35.35z" />
<glyph unicode="&#xe718;" glyph-name="transportation-bike-sport" data-tags="transportation-bike-sport" d="M527.892 759.271l7.199-0.75c16.343-3.336 28.652-17.775 28.652-35.1s-12.308-31.764-28.652-35.1l-7.199-0.75h-158.899c-19.794 0-35.85 16.056-35.85 35.85s16.056 35.85 35.85 35.85h158.899zM276.876 302.5c-4.297-19.308-23.439-31.478-42.75-27.197-19.317 4.291-31.533 23.429-27.25 42.747l70-15.549zM878.874 791.050c44.211 0 81.935-31.993 89.201-75.6 7.741-46.499-21.514-91.164-67.246-102.6l-14.653-3.65-7.199-1.050c-16.655-0.721-32.097 10.346-36.301 27.15-4.787 19.196 6.907 38.651 26.102 43.45l14.648 3.65c9.487 2.372 15.56 11.655 13.952 21.3-1.516 9.037-9.339 15.65-18.504 15.65h-88.899l11.853-119.1 31.8-286c2.181-19.671-11.981-37.412-31.652-39.598s-37.417 12.027-39.598 31.698l-28.201 254.1h-387.652c-7.193 0-13.432-4.981-15-12l-54.65-245.95-70 15.549 54.65 245.95c8.854 39.818 44.208 68.15 85 68.15h380.1l-8.699 87.2h-62.899c-19.794 0-35.85 16.056-35.85 35.85s16.056 35.85 35.85 35.85h223.846zM432.552 310.287c0-105.303-85.369-190.674-190.676-190.674s-190.676 85.371-190.676 190.674c0 105.308 85.368 190.678 190.676 190.678s190.676-85.37 190.676-190.678zM360.851 310.267c0 65.71-53.242 118.984-118.95 118.999-65.72 0-119.001-53.284-119.001-118.999 0.013-65.71 53.288-118.953 119.001-118.953l-0.025-71.7-9.825 0.251c-97.487 4.946-175.653 83.113-180.601 180.598l-0.25 9.825c0 105.308 85.368 190.678 190.676 190.678l9.825-0.25c100.742-5.113 180.851-88.412 180.851-190.428l-0.25-9.825c-5.112-100.731-88.424-180.833-190.426-180.849l0.025 71.7c65.7 0.015 118.937 53.248 118.95 118.953zM972.8 310.287c0-105.303-85.371-190.674-190.674-190.674-105.308 0-190.679 85.371-190.679 190.674 0 105.308 85.371 190.678 190.679 190.678 105.303 0 190.674-85.37 190.674-190.678zM901.1 310.267c0 65.71-53.243 118.984-118.948 118.999-65.72 0-119.004-53.284-119.004-118.999 0.015-65.71 53.289-118.953 119.004-118.953l-0.026-71.7-9.825 0.251c-97.49 4.946-175.657 83.113-180.603 180.598l-0.251 9.825c0 105.308 85.371 190.678 190.679 190.678l9.825-0.25c100.741-5.113 180.849-88.412 180.849-190.428l-0.251-9.825c-5.11-100.731-88.422-180.833-190.423-180.849l0.026 71.7c65.7 0.015 118.932 53.248 118.948 118.953z" />
<glyph unicode="&#xe719;" glyph-name="transportation-bike" data-tags="transportation-bike" d="M527.892 759.271l7.199-0.75c16.343-3.336 28.652-17.775 28.652-35.1s-12.308-31.764-28.652-35.1l-7.199-0.75h-158.899c-19.794 0-35.85 16.056-35.85 35.85s16.056 35.85 35.85 35.85h158.899zM276.876 302.5c-4.297-19.308-23.439-31.478-42.75-27.197-19.317 4.291-31.533 23.429-27.25 42.747l70-15.549zM704.026 791.050c44.708-0.009 82.15-33.911 86.6-78.4l11.203-112.4 31.8-286c2.181-19.671-11.981-37.412-31.652-39.598s-37.417 12.027-39.598 31.698l-28.201 254.1h-387.652c-7.193 0-13.432-4.981-15-12l-54.65-245.95-70 15.549 54.65 245.95c8.854 39.818 44.208 68.15 85 68.15h380.1l-7.347 73.4c-0.799 7.835-7.378 13.792-15.252 13.8h-48.998c-19.794 0-35.85 16.056-35.85 35.85s16.056 35.85 35.85 35.85h48.998zM432.552 310.287c0-105.303-85.369-190.674-190.676-190.674s-190.676 85.371-190.676 190.674c0 105.308 85.368 190.678 190.676 190.678s190.676-85.37 190.676-190.678zM360.851 310.267c0 65.71-53.242 118.984-118.95 118.999-65.72 0-119.001-53.284-119.001-118.999 0.013-65.71 53.288-118.953 119.001-118.953l-0.025-71.7-9.825 0.251c-97.487 4.946-175.653 83.113-180.601 180.598l-0.25 9.825c0 105.308 85.368 190.678 190.676 190.678l9.825-0.25c100.742-5.113 180.851-88.412 180.851-190.428l-0.25-9.825c-5.112-100.731-88.424-180.833-190.426-180.849l0.025 71.7c65.7 0.015 118.937 53.248 118.95 118.953zM972.8 310.287c0-105.303-85.371-190.674-190.674-190.674-105.308 0-190.679 85.371-190.679 190.674 0 105.308 85.371 190.678 190.679 190.678 105.303 0 190.674-85.37 190.674-190.678zM901.1 310.267c0 65.71-53.243 118.984-118.948 118.999-65.72 0-119.004-53.284-119.004-118.999 0.015-65.71 53.289-118.953 119.004-118.953l-0.026-71.7-9.825 0.251c-97.49 4.946-175.657 83.113-180.603 180.598l-0.251 9.825c0 105.308 85.371 190.678 190.679 190.678l9.825-0.25c100.741-5.113 180.849-88.412 180.849-190.428l-0.251-9.825c-5.11-100.731-88.422-180.833-190.423-180.849l0.026 71.7c65.7 0.015 118.932 53.248 118.948 118.953z" />
<glyph unicode="&#xe71a;" glyph-name="transportation-boat-front" data-tags="transportation-boat-front" d="M211.075 89.948c41.434 55.572 122.972 60.365 170.65 10.051l21.050-22.2c15.6-16.466 42.532-13.819 54.65 5.35 37.082 58.701 119.543 66.749 167.302 16.353l17.449-18.401c21.494-22.692 57.646-22.687 79.15 0l6.651 6.999c53.903 56.899 144.696 56.243 197.796-1.398l22.154-24.003c13.404-14.551 12.493-37.238-2.053-50.647-12.744-11.73-31.729-12.508-45.251-2.755l-5.396 4.803-22.154 24.049c-24.98 27.11-67.692 27.412-93.046 0.65l-6.651-6.999c-49.777-52.526-133.484-52.536-183.25 0l-17.449 18.401c-15.606 16.456-42.542 13.824-54.651-5.35-37.088-58.696-119.548-66.76-167.301-16.353l-21.050 22.2c-17.083 18.017-46.307 16.307-61.15-3.599-44.597-59.781-134.147-59.919-178.9-0.251l-15.9 21.253c-11.861 15.826-8.662 38.272 7.15 50.15 13.849 10.383 32.777 9.242 45.25-1.802l4.9-5.35 15.95-21.248c16.034-21.376 48.121-21.315 64.1 0.097zM511.975 944.65c19.793 0 35.85-16.056 35.85-35.85v-40.95h143.35c76.349 0 138.25-61.902 138.25-138.25v-106.35l4.352-1.65c73.81-27.695 109.558-111.433 78.5-183.901l-34.55-80.599-10.604-24.55 0.051-0.051-40.248-102.4c-5.391-13.711-18.616-22.748-33.352-22.748h-563.199c-14.727 0.010-27.964 9.042-33.35 22.748l-40.25 102.4-45.1 105.201c-31.048 72.46 4.703 156.2 78.5 183.901l4.35 1.65v106.35c0 76.34 61.912 138.238 138.25 138.25h143.35v40.95c0 19.786 16.066 35.838 35.85 35.85zM332.775 796.15c-36.75-0.012-66.55-29.797-66.55-66.55v-79.45l197.2 73.9c31.289 11.734 65.809 11.728 97.102 0l197.197-73.9v79.45c0 36.76-29.788 66.55-66.55 66.55h-358.399z" />
<glyph unicode="&#xe71b;" glyph-name="transportation-boat-small-02" data-tags="transportation-boat-small-02" d="M544.911 367.539v382.919c0 49.673-63.622 70.245-92.705 29.977l-276.551-382.919c-24.455-33.859-0.261-81.178 41.507-81.178h276.551c28.276 0 51.198 22.927 51.198 51.2zM874.056 415.084c0-54.533-44.206-98.744-98.744-98.744-54.533 0-98.739 44.211-98.739 98.744 0 54.535 44.206 98.744 98.739 98.744 54.538 0 98.744-44.209 98.744-98.744zM888.576 184.684h-779.112c-30.89 0-54.746-27.146-50.775-57.779l12.326-95.089c3.308-25.518 25.043-44.616 50.776-44.616h717.485c19.118 0 36.649 10.655 45.45 27.633l49.306 95.084c17.669 34.084-7.066 74.767-45.455 74.767z" />
<glyph unicode="&#xe71c;" glyph-name="transportation-boat-small-03" data-tags="transportation-boat-small-03" d="M468.116 367.539v382.919c0 49.673 63.622 70.245 92.708 29.977l276.552-382.919c24.453-33.859 0.256-81.178-41.508-81.178h-276.552c-28.278 0-51.201 22.927-51.201 51.2zM314.516 415.084c0-54.533-44.209-98.739-98.743-98.739s-98.743 44.206-98.743 98.739c0 54.535 44.209 98.744 98.743 98.744s98.743-44.209 98.743-98.744zM888.576 184.684h-779.112c-30.89 0-54.746-27.146-50.775-57.779l12.326-95.089c3.308-25.518 25.043-44.616 50.776-44.616h717.485c19.118 0 36.649 10.655 45.45 27.633l49.306 95.084c17.669 34.084-7.066 74.767-45.455 74.767z" />
<glyph unicode="&#xe71d;" glyph-name="transportation-boat" data-tags="transportation-boat" d="M211.099 89.948c41.438 55.578 122.974 60.375 170.65 10.051l21.050-22.2c15.603-16.466 42.536-13.829 54.65 5.35 37.084 58.706 119.544 66.76 167.299 16.353l17.449-18.401c21.504-22.697 57.651-22.697 79.15 0l6.651 6.999c53.908 56.904 144.701 56.253 197.801-1.398l22.149-24.003c13.404-14.551 12.493-37.238-2.048-50.647-12.744-11.74-31.729-12.508-45.251-2.755l-5.402 4.803-22.149 24.049c-24.98 27.121-67.692 27.418-93.051 0.65l-6.651-6.999c-49.772-52.541-133.473-52.541-183.25 0l-17.449 18.401c-15.601 16.466-42.532 13.829-54.651-5.35-37.082-58.706-119.542-66.76-167.298-16.353l-21.050 22.2c-17.082 18.033-46.304 16.312-61.15-3.599-44.594-59.791-134.144-59.924-178.9-0.251l-15.9 21.253c-11.874 15.831-8.678 38.272 7.15 50.15 13.854 10.388 32.778 9.252 45.25-1.802l4.9-5.35 15.95-21.248c16.037-21.376 48.124-21.325 64.1 0.097zM399.349 755.2v102.4c0 8.483-6.867 15.35-15.35 15.35h-76.8c-19.794 0-35.85 16.056-35.85 35.85s16.056 35.85 35.85 35.85h76.8c48.071 0 87.050-38.979 87.050-87.050v-102.4c0-19.794-16.056-35.85-35.85-35.85s-35.85 16.056-35.85 35.85zM220.149 652.8c0 76.348 61.902 138.25 138.25 138.25h185.499c45.204-0.005 87.552-22.116 113.403-59.2l165.699-237.75-58.798-41-165.704 237.75c-12.442 17.854-32.835 28.495-54.6 28.5h-185.499c-36.76 0-66.55-29.79-66.55-66.55v-153.6h-71.7v153.6zM72.236 432.584c-10.421 32.998 14.218 66.616 48.823 66.616h800.541c28.278 0 51.2-22.923 51.2-51.2 0-141.384-114.616-256-256-256h-493.543c-44.675 0-84.194 28.964-97.647 71.562l-53.374 169.021z" />
<glyph unicode="&#xe71e;" glyph-name="transportation-bus-front-10" data-tags="transportation-bus-front-10" d="M956.452 362.348c-0.886-34.145-2.534-64.338-5.903-90.998-7.096-56.156-22.001-101.642-55.45-138.547-5.289-5.837-10.865-11.412-16.701-16.701-23.649-21.437-50.847-35.169-82.099-44.201l35.502-68.152c9.139-17.551 2.304-39.204-15.252-48.348-17.551-9.129-39.204-2.299-48.348 15.252l-45.901 88.146c-52.398-5.023-117.315-5.048-197.499-5.048-89.379 0-159.8-0.082-215.050 6.902-2.222 0.282-4.411 0.691-6.6 0.998l-47.35-90.998c-9.145-17.551-30.798-24.387-48.35-15.252-17.552 9.144-24.386 30.797-15.25 48.348l39.3 75.505c-22.286 8.73-42.326 20.557-60.3 36.849-5.835 5.289-11.411 10.865-16.7 16.701-33.448 36.905-48.354 82.391-55.45 138.547-3.368 26.66-5.067 56.852-5.95 90.998 2.979-0.799 6.068-1.398 9.3-1.398h844.8c3.215 0 6.287 0.604 9.252 1.398zM307.2 304.65c-19.792-0.005-35.85-16.056-35.85-35.85s16.058-35.845 35.85-35.85h76.8c19.794 0 35.85 16.056 35.85 35.85s-16.056 35.85-35.85 35.85h-76.8zM665.6 304.65c-19.794-0.005-35.85-16.056-35.85-35.85s16.056-35.845 35.85-35.85h76.8c19.794 0 35.85 16.056 35.85 35.85s-16.056 35.85-35.85 35.85h-76.8zM524.8 944.65c89.38 0 159.8 0.079 215.050-6.9 56.156-7.096 101.642-22.002 138.547-55.45 5.837-5.289 11.412-10.865 16.701-16.7 33.449-36.906 48.353-82.394 55.45-138.55 6.984-55.25 6.902-125.669 6.902-215.050v-25.6c0-19.323-0.036-37.761-0.102-55.352-3.226 0.957-6.61 1.603-10.148 1.603h-844.8c-3.555 0-6.958-0.635-10.2-1.603-0.065 17.591-0.050 36.029-0.050 55.352v25.6c0 89.381-0.079 159.8 6.9 215.050 7.096 56.155 22.002 101.644 55.45 138.55 5.289 5.835 10.865 11.411 16.7 16.7 36.905 33.449 82.396 48.354 138.55 55.45 55.25 6.98 125.671 6.9 215.050 6.9z" />
<glyph unicode="&#xe71f;" glyph-name="transportation-bus-front-12" data-tags="transportation-bus-front-12" d="M903.9 735.7c2.156-35.124 2.284-76.21 2.299-123.85h15.401c48.072 0 87.050-38.98 87.050-87.050v-45.15c0-32.961-18.627-63.102-48.102-77.848l-54.349-27.151c-0.046-61.174-0.517-111.114-5.898-151.153-6.159-45.798-19.287-83.983-49.551-114.248-8.212-8.212-17.075-15.058-26.45-20.951v-54.999c0-45.245-36.654-81.951-81.9-81.951h-69.1c-45.245 0-81.951 36.705-81.951 81.951v20.552c-9.129-0.015-18.509-0.102-28.15-0.102h-102.4c-9.659 0-19.058 0.087-28.2 0.102v-20.552c0-45.245-36.657-81.951-81.9-81.951h-69.1c-45.233 0.010-81.95 36.716-81.95 81.951v55.050c-9.352 5.883-18.204 12.703-26.4 20.9-30.263 30.264-43.392 68.449-49.55 114.248-5.382 40.038-5.901 89.979-5.95 151.153l-54.3 27.151c-29.475 14.746-48.1 44.887-48.1 77.848v45.15c0 48.071 38.979 87.050 87.050 87.050h15.4c0.009 47.639 0.094 88.726 2.25 123.85 2.564-0.583 5.21-1 7.95-1h768c2.724 0 5.35 0.424 7.9 1zM271.35 33.3c0-5.647 4.605-10.24 10.25-10.25h69.1c5.656 0 10.25 4.593 10.25 10.25v21.299c-27.488 0.763-51.903 2.207-73.45 5.1-5.494 0.737-10.875 1.592-16.15 2.55v-28.948zM736.502 59.699c-21.55-2.893-45.962-4.337-73.452-5.1v-21.299c0-5.658 4.593-10.25 10.25-10.25h69.1c5.658 0 10.25 4.593 10.25 10.25v28.948c-5.274-0.957-10.655-1.812-16.148-2.55zM307.2 304.65c-19.794 0-35.85-16.056-35.85-35.85s16.056-35.85 35.85-35.85h76.8c19.794 0 35.85 16.056 35.85 35.85s-16.056 35.85-35.85 35.85h-76.8zM665.6 304.65c-19.794 0-35.85-16.056-35.85-35.85s16.056-35.85 35.85-35.85h76.8c19.794 0 35.85 16.056 35.85 35.85s-16.056 35.85-35.85 35.85h-76.8zM102.4 540.15c-8.483 0-15.35-6.867-15.35-15.35v-45.15c0-5.818 3.296-11.148 8.5-13.75l22.2-11.1v85.35h-15.35zM906.25 454.8l22.2 11.1c5.202 2.602 8.499 7.932 8.499 13.75v45.15c0 8.483-6.866 15.35-15.35 15.35h-15.35v-85.35zM563.2 944.65c71.388 0 128.532 0.067 173.302-5.95 45.798-6.158 83.983-19.287 114.248-49.55 23.035-23.034 36.086-50.672 43.75-82.75h-765c7.663 32.078 20.716 59.716 43.75 82.75 30.263 30.263 68.448 43.392 114.25 49.55 44.768 6.017 101.915 5.95 173.3 5.95h102.4z" />
<glyph unicode="&#xe720;" glyph-name="transportation-bus" data-tags="transportation-bus" d="M936.95 550.399c0 48.935-0.102 69.239-2.698 85.65-14.925 94.197-88.806 168.076-182.999 183-11.668 1.848-25.313 2.313-49.802 2.5v-230.6c35.635-35.515 51.302-50.214 69.248-60.2 11.331-6.301 23.337-11.296 35.804-14.85 21.581-6.153 45.22-6.45 106.296-6.45h24.151v40.95zM496.65 611.85h133.1v209.9h-133.1v-209.9zM266.25 611.85h158.7v209.9h-158.7v-209.9zM87.050 294.4c0-25.144 0.072-40.402 1.55-51.4 0.678-5.048 1.482-7.762 2.050-9.149 0.451-1.096 0.757-1.357 0.9-1.5s0.403-0.451 1.5-0.901c1.391-0.568 4.104-1.372 9.15-2.048 10.999-1.48 26.254-1.551 51.4-1.551h755.2c6.175 0 9.917 0.005 12.749 0.097 2.022 0.072 2.867 0.174 3.052 0.2 6.088 1.219 10.834 5.965 12.047 12.052 0.031 0.184 0.133 1.024 0.205 3.052 0.092 2.831 0.097 6.574 0.097 12.749v181.75h-24.151c-57.037 0-92.493-0.287-125.947 9.252-17.751 5.060-34.872 12.125-51 21.098-27.668 15.394-50.724 37.756-85.053 72.050h-563.748v-245.75zM1008.65 256c0-10.179 0.148-20.521-1.7-29.798-6.876-34.514-33.838-61.476-68.352-68.352-9.277-1.848-19.62-1.7-29.798-1.7h-755.2c-23.119 0-44.065-0.072-60.95 2.202-17.916 2.406-36.533 8.033-51.8 23.296-15.267 15.268-20.891 33.884-23.3 51.804-2.269 16.881-2.2 37.827-2.2 60.948v383.999c0 35.207-0.034 64.31 2.35 87.75 2.445 24.037 7.733 46.067 20.95 65.85 10.086 15.095 23.056 28.064 38.15 38.15 19.783 13.217 41.813 18.505 65.85 20.95 23.44 2.384 52.543 2.35 87.75 2.35h435.2c46.193 0 73.462 0.103 96.85-3.6 124.877-19.779 222.822-117.724 242.601-242.6 3.702-23.387 3.599-50.657 3.599-96.85v-294.399zM87.050 611.85h107.5v209.75c-18.254-0.177-32.629-0.577-44.65-1.8-18.372-1.869-27.257-5.212-33.3-9.25-7.259-4.853-13.497-11.091-18.35-18.35-4.038-6.043-7.381-14.928-9.25-33.3-1.93-18.971-1.95-43.8-1.95-80.5v-66.55zM460.8 192c0-84.833-68.769-153.6-153.6-153.6s-153.6 68.767-153.6 153.6c0 84.828 68.769 153.6 153.6 153.6s153.6-68.772 153.6-153.6zM389.1 192c0 45.24-36.657 81.9-81.9 81.9s-81.9-36.659-81.9-81.9c0-45.245 36.657-81.9 81.9-81.9v-71.7c-84.831 0-153.6 68.767-153.6 153.6 0 84.828 68.769 153.6 153.6 153.6s153.6-68.772 153.6-153.6c0-84.833-68.769-153.6-153.6-153.6v71.7c45.243 0 81.9 36.654 81.9 81.9zM870.4 192c0-84.833-68.767-153.6-153.6-153.6-84.828 0-153.6 68.767-153.6 153.6 0 84.828 68.772 153.6 153.6 153.6 84.833 0 153.6-68.772 153.6-153.6zM798.7 192c0 45.24-36.654 81.9-81.9 81.9s-81.9-36.659-81.9-81.9c0-45.245 36.654-81.9 81.9-81.9v-71.7c-84.828 0-153.6 68.767-153.6 153.6 0 84.828 68.772 153.6 153.6 153.6 84.833 0 153.6-68.772 153.6-153.6 0-84.833-68.767-153.6-153.6-153.6v71.7c45.245 0 81.9 36.654 81.9 81.9z" />
<glyph unicode="&#xe721;" glyph-name="transportation-car-front" data-tags="transportation-car-front" d="M925.701 681.45c15.831 11.874 38.272 8.678 50.15-7.15 11.873-15.833 8.678-38.272-7.153-50.15l-102.4-76.8c-3.077-2.308-6.502-4.132-10.148-5.35l-45.302-15.1c-24.53-8.176-50.237-12.35-76.099-12.35h-471.101c-25.86 0-51.567 4.174-76.1 12.35l-45.3 15.1c-3.649 1.218-7.072 3.042-10.15 5.35l-102.4 76.8c-15.828 11.878-19.024 34.317-7.15 50.15 11.878 15.828 34.317 19.024 50.15 7.15l97.65-73.25 39.85-13.3c17.228-5.743 35.29-8.65 53.45-8.65h471.101c18.161 0 36.219 2.907 53.448 8.65l39.803 13.3 97.7 73.25zM615.598 893.45c106.271 0 199.962-69.717 230.502-171.5l22.052-73.45c6.262-20.874 15.611-40.717 27.699-58.85l63.949-95.95c15.14-22.707 23.25-49.407 23.25-76.702v-276.198c0-48.072-38.979-87.050-87.050-87.050h-51.2c-48.072 0-87.050 38.979-87.050 87.050v102.4c0 8.484-6.866 15.35-15.35 15.35h-486.4c-8.483 0-15.35-6.866-15.35-15.35v-102.4c0-48.072-38.98-87.050-87.050-87.050h-51.2c-48.071 0-87.050 38.979-87.050 87.050v276.198c0.001 27.295 8.112 53.994 23.25 76.702l70.4 105.6c8.451 12.676 15.541 26.205 21.2 40.35l41.050 102.5c36.543 91.359 125.004 151.297 223.4 151.3h220.948zM232.95 448c-15.544-0.005-28.144-12.605-28.15-28.15 0-15.549 12.602-28.145 28.15-28.15 15.553 0 28.15 12.595 28.15 28.15-0.006 15.549-12.601 28.15-28.15 28.15zM744.95 448c-15.544-0.005-28.145-12.605-28.15-28.15 0-15.549 12.6-28.145 28.15-28.15 15.555 0 28.15 12.595 28.15 28.15-0.005 15.549-12.6 28.15-28.15 28.15z" />
<glyph unicode="&#xe722;" glyph-name="transportation-car-simple" data-tags="transportation-car-simple" d="M936.95 410.301c0 25.211-14.249 48.273-36.797 59.548l-89.4 44.7h-672.501v-168.949c0-36.762 29.79-66.55 66.55-66.55h665.599c36.762 0 66.55 29.788 66.55 66.55v64.701zM445.451 718.499v-132.25h302.1l-48.701 64.9c-32.123 42.827-82.698 67.898-136.3 67.65-41.272-0.191-79.793-0.225-117.099-0.3zM218.9 718.349c-17.001-17.583-35.726-46.118-51.4-78.25-9.479-19.433-16.802-38.001-21.75-53.85h228v132.1c-53.001-0.099-90.635-0.233-154.85 0zM1008.65 345.6c0-76.349-61.901-138.25-138.25-138.25h-665.599c-76.348 0-138.25 61.901-138.25 138.25v205.55c0.711 33.398 16.725 79.757 36.55 120.4 7.696 15.776 16.585 31.93 26.35 47.3l-78.45 0.5-7.2 0.8c-16.316 3.427-28.542 17.929-28.45 35.25 0.11 19.789 16.259 35.756 36.050 35.65l153.55-1.050c87.246-0.37 125.707-0.086 204.6 0 48.439 0.052 98.167 0.247 152.702 0.5 76.206 0.349 148.183-35.327 193.946-96.35l86.554-115.45 89.446-44.75c46.838-23.417 76.452-71.288 76.452-123.648v-64.701zM614.4 279.050l7.199-0.753c16.343-3.333 28.652-17.772 28.652-35.098s-12.308-31.764-28.652-35.103l-7.199-0.748h-204.799c-19.794 0-35.85 16.056-35.85 35.85s16.056 35.85 35.85 35.85h204.799zM409.601 243.2c0-56.556-45.846-102.4-102.4-102.4s-102.4 45.844-102.4 102.4c0 56.556 45.846 102.4 102.4 102.4s102.4-45.844 102.4-102.4zM337.901 243.2c0 16.968-13.734 30.7-30.7 30.7s-30.7-13.732-30.7-30.7c0-16.968 13.734-30.7 30.7-30.7v-71.7c-56.554 0-102.4 45.844-102.4 102.4s45.846 102.4 102.4 102.4c56.554 0 102.4-45.844 102.4-102.4s-45.846-102.4-102.4-102.4v71.7c16.966 0 30.7 13.732 30.7 30.7zM819.2 243.2c0-56.556-45.844-102.4-102.4-102.4s-102.4 45.844-102.4 102.4c0 56.556 45.844 102.4 102.4 102.4s102.4-45.844 102.4-102.4zM747.5 243.2c0 16.968-13.732 30.7-30.7 30.7s-30.7-13.732-30.7-30.7c0-16.968 13.732-30.7 30.7-30.7v-71.7c-56.556 0-102.4 45.844-102.4 102.4s45.844 102.4 102.4 102.4c56.556 0 102.4-45.844 102.4-102.4s-45.844-102.4-102.4-102.4v71.7c16.968 0 30.7 13.732 30.7 30.7z" />
<glyph unicode="&#xe723;" glyph-name="transportation-car-sport" data-tags="transportation-car-sport" d="M936.95 345.6v64.701c0 25.211-14.249 48.273-36.797 59.548l-89.4 44.7h-672.501v-168.949c0-36.762 29.79-66.55 66.55-66.55 19.794 0 35.85-16.056 35.85-35.85 0-17.326-12.308-31.764-28.65-35.103l-7.2-0.748-14.15 0.701c-69.702 7.086-124.1 65.976-124.1 137.549v205.55c0.711 33.398 16.725 79.757 36.55 120.4 7.696 15.776 16.585 31.93 26.35 47.3l-78.45 0.5-7.2 0.8c-16.316 3.427-28.542 17.929-28.45 35.25 0.11 19.789 16.259 35.756 36.050 35.65l153.55-1.050c87.246-0.37 125.707-0.086 204.6 0 48.439 0.052 98.167 0.247 152.702 0.5 76.206 0.349 148.183-35.327 193.946-96.35l86.554-115.45 89.446-44.75c46.838-23.417 76.452-71.288 76.452-123.648v-64.701c0-76.349-61.901-138.25-138.25-138.25h-51.2c-19.794 0-35.85 16.056-35.85 35.85s16.056 35.85 35.85 35.85h51.2c36.762 0 66.55 29.788 66.55 66.55zM409.651 718.349c-74.229-0.080-113.023-0.283-190.75 0-17.001-17.583-35.726-46.118-51.4-78.25-9.479-19.433-16.802-38.001-21.75-53.85h228v40.95c0 19.794 16.056 35.85 35.85 35.85s35.85-16.056 35.85-35.85v-40.95h302.1l-48.701 64.9c-32.123 42.827-82.698 67.898-136.3 67.65-54.595-0.252-104.375-0.397-152.899-0.45zM614.4 279.050l7.199-0.753c16.343-3.333 28.652-17.772 28.652-35.098s-12.308-31.764-28.652-35.103l-7.199-0.748h-204.799c-19.794 0-35.85 16.056-35.85 35.85s16.056 35.85 35.85 35.85h204.799zM409.601 243.2c0-56.556-45.846-102.4-102.4-102.4s-102.4 45.844-102.4 102.4c0 56.556 45.846 102.4 102.4 102.4s102.4-45.844 102.4-102.4zM337.901 243.2c0 16.968-13.734 30.7-30.7 30.7s-30.7-13.732-30.7-30.7c0-16.968 13.734-30.7 30.7-30.7v-71.7c-56.554 0-102.4 45.844-102.4 102.4s45.846 102.4 102.4 102.4c56.554 0 102.4-45.844 102.4-102.4s-45.846-102.4-102.4-102.4v71.7c16.966 0 30.7 13.732 30.7 30.7zM819.2 243.2c0-56.556-45.844-102.4-102.4-102.4s-102.4 45.844-102.4 102.4c0 56.556 45.844 102.4 102.4 102.4s102.4-45.844 102.4-102.4zM747.5 243.2c0 16.968-13.732 30.7-30.7 30.7s-30.7-13.732-30.7-30.7c0-16.968 13.732-30.7 30.7-30.7v-71.7c-56.556 0-102.4 45.844-102.4 102.4s45.844 102.4 102.4 102.4c56.556 0 102.4-45.844 102.4-102.4s-45.844-102.4-102.4-102.4v71.7c16.968 0 30.7 13.732 30.7 30.7z" />
<glyph unicode="&#xe724;" glyph-name="transportation-car-taxi" data-tags="transportation-car-taxi" d="M102.4 514.55h814.95l7.997-9.6c30.664-36.803 47.452-83.195 47.452-131.098v-115.804c0-43.54-27.366-81.157-66.55-95.8v-47.048c0-62.208-50.442-112.65-112.65-112.65h-51.2c-62.208 0-112.65 50.442-112.65 112.65v13.102l-31.8-3.553c-57.134-6.349-114.799-6.671-171.999-0.947l-31.7 3.2v-11.802c0-62.208-50.441-112.65-112.65-112.65h-51.2c-62.21 0-112.65 50.442-112.65 112.65v45.85c-39.217 14.659-66.55 52.26-66.55 95.749v129.203c0.002 40.428 11.974 79.959 34.4 113.598l10.4 15.65c2.084-0.377 4.208-0.7 6.4-0.7zM189.45 115.2c0-22.62 18.328-40.95 40.95-40.95h51.2c22.622 0 40.95 18.33 40.95 40.95v18.949l-66.55 6.651-66.55 8.351v-33.951zM701.45 136.3v-21.1c0-22.62 18.33-40.95 40.95-40.95h51.2c22.62 0 40.95 18.33 40.95 40.95v35.901l-133.1-14.802zM307.2 448c-56.554 0-102.4-45.844-102.4-102.4s45.846-102.4 102.4-102.4c56.554 0 102.4 45.844 102.4 102.4s-45.846 102.4-102.4 102.4zM716.8 448c-56.556 0-102.4-45.844-102.4-102.4s45.844-102.4 102.4-102.4c56.556 0 102.4 45.844 102.4 102.4s-45.844 102.4-102.4 102.4zM577.551 857.6c113.039-0.010 212.716-74.173 245.197-182.45l7.004-23.45c6.958-23.201 17.244-45.2 30.346-65.45h-716.999c7.935 12.756 14.817 26.142 20.4 40.1l28.15 70.35c38.881 97.171 132.989 160.892 237.65 160.9h148.251z" />
<glyph unicode="&#xe725;" glyph-name="transportation-car" data-tags="transportation-car" d="M944.65 345.6v64.701c0 28.114-15.903 53.821-41.052 66.398l-96.998 48.5c-3.912 1.955-7.327 4.803-9.948 8.3l-91.653 122.25c-33.577 44.775-86.431 71.005-142.449 70.75-54.592-0.253-104.382-0.447-152.9-0.5-75.277-0.081-114.081-0.302-193.95 0-18.521-18.286-38.631-48.787-55.1-82.55-18.751-38.445-29.643-74.518-30.050-93.65v-204.199c0-41.001 33.248-74.25 74.25-74.25 15.552 0 28.15-12.6 28.15-28.15 0-15.555-12.598-28.15-28.15-28.15-72.106 0-130.55 58.445-130.55 130.55v205.4c0.674 31.686 16.054 76.772 35.75 117.15 9.635 19.751 21.013 39.963 33.6 58.3-32.794 0.234-68.457 0.472-92.55 0.6-15.552 0.083-28.083 12.748-28 28.3s12.748 28.083 28.3 28c42.043-0.224 116.953-0.845 153.55-1 87.27-0.37 125.792-0.086 204.65 0 48.442 0.052 98.168 0.197 152.702 0.45 73.789 0.342 143.493-34.176 187.796-93.25l87.7-116.9 91.049-45.55c44.232-22.116 72.151-67.35 72.151-116.798v-64.701c0-72.105-58.445-130.55-130.55-130.55h-51.2c-15.549 0-28.15 12.595-28.15 28.15 0 15.549 12.6 28.15 28.15 28.15h51.2c41.001 0 74.25 33.249 74.25 74.25zM614.4 271.35c15.555 0 28.15-12.6 28.15-28.15 0-15.555-12.595-28.15-28.15-28.15h-204.799c-15.553 0-28.15 12.595-28.15 28.15 0 15.549 12.598 28.15 28.15 28.15h204.799zM409.601 243.2c0-56.556-45.846-102.4-102.4-102.4s-102.4 45.844-102.4 102.4c0 56.556 45.846 102.4 102.4 102.4s102.4-45.844 102.4-102.4zM353.3 243.2c0 25.446-20.651 46.1-46.1 46.1s-46.1-20.654-46.1-46.1c0-25.452 20.65-46.1 46.1-46.1v-56.3c-56.554 0-102.4 45.844-102.4 102.4s45.846 102.4 102.4 102.4c56.554 0 102.4-45.844 102.4-102.4s-45.846-102.4-102.4-102.4v56.3c25.449 0 46.1 20.649 46.1 46.1zM819.2 243.2c0-56.556-45.844-102.4-102.4-102.4s-102.4 45.844-102.4 102.4c0 56.556 45.844 102.4 102.4 102.4s102.4-45.844 102.4-102.4zM762.9 243.2c0 25.446-20.649 46.1-46.1 46.1-25.446 0-46.1-20.654-46.1-46.1 0-25.452 20.654-46.1 46.1-46.1v-56.3c-56.556 0-102.4 45.844-102.4 102.4s45.844 102.4 102.4 102.4c56.556 0 102.4-45.844 102.4-102.4s-45.844-102.4-102.4-102.4v56.3c25.452 0 46.1 20.649 46.1 46.1zM432.65 652.799c0 15.553 12.598 28.15 28.15 28.15s28.15-12.598 28.15-28.15v-125.45h176.65c15.555 0 28.15-12.598 28.15-28.15s-12.595-28.15-28.15-28.15h-204.799c-15.553 0-28.15 12.598-28.15 28.15v153.6z" />
<glyph unicode="&#xe726;" glyph-name="transportation-helicopter" data-tags="transportation-helicopter" d="M810.255 841.5c16.328-3.345 28.6-17.783 28.6-35.1s-12.273-31.755-28.6-35.1l-7.199-0.75h-96.348l2.447-74.050c57.938-0.484 124.047-4.212 181.699-35.1 54.564-29.238 102.369-83.908 117.453-189.45 0.241-1.677 0.348-3.406 0.348-5.1v-169.752c0-46.577-37.775-84.342-84.347-84.347h-14.551l-17.5-61.701h54.948l7.199-0.701c16.338-3.333 28.646-17.828 28.652-35.149-0.005-17.316-12.319-31.764-28.652-35.098l-7.199-0.753h-409.6c-19.789 0-35.842 16.061-35.849 35.85 0.007 19.789 16.060 35.85 35.849 35.85h77.752l24.648 64.502c-53.985 9.175-101.985 41.344-130.699 89.196l-73.6 122.604c-13.517 22.516-34.189 39.869-58.7 49.299l-191.75 73.75c-56.037 21.553-101.998 63.301-128.85 117l-37.25 74.45c-5.555 11.11-4.98 24.334 1.55 34.9 6.531 10.561 18.082 17 30.5 17h119.9c27.393-0.004 53.214-12.936 69.65-34.85l42.050-56.050c2.897-3.847 7.434-6.093 12.25-6.1h342.399l-2.499 73.8h-98.698c-19.794 0-35.852 16.056-35.852 35.85s16.058 35.85 35.852 35.85h266.798l7.199-0.75zM715.607 212.751c-0.133-0.394-0.2-0.809-0.353-1.203l-23.148-60.498h125.599l17.5 61.701h-119.598z" />
<glyph unicode="&#xe727;" glyph-name="transportation-helmet" data-tags="transportation-helmet" d="M479.214 893.45c47.88-0.005 120.722-12.699 187.902-50.75 61.804-35.014 119.245-92.015 146.647-179.65h126.254c13.757-0.011 26.332-7.9 32.297-20.3 5.965-12.414 4.255-27.194-4.347-37.95l-51.251-64.1c-39.905-49.867-100.828-73.354-161.101-72.9-52.47 0.397-104.182-5.84-140.15-26.799-17.162-10.004-30.29-23.137-38.799-40.602-5.494-11.269-9.539-25.39-10.952-43.197 5.002 0.225 10.24 0.538 15.549 0.65 20.086 0.42 43.945-0.343 67.052-6.4 23.603-6.2 47.78-18.319 66.35-41.354 18.478-22.927 28.595-53.202 30.7-90.496 1.731-30.7-3.318-57.359-14.848-79.903-11.571-22.6-28.518-38.835-47.002-50.35-35.476-22.093-78.653-27.924-106.752-31.048-24.33-2.708-49.352-4.552-74.649-4.552h-154.15c-51.592 0-109.677 8.218-158.301 41.851-156.099 108.017-205.070 308.311-155.901 478.949 49.888 173.095 201.126 318.9 445.451 318.9zM591.365 243.2c-15.549 0-28.145-12.6-28.15-28.15 0-15.555 12.595-28.15 28.15-28.15 15.549 0 28.15 12.6 28.15 28.15-0.005 15.544-12.605 28.15-28.15 28.15z" />
<glyph unicode="&#xe728;" glyph-name="transportation-light-traffic" data-tags="transportation-light-traffic" d="M511.988 908.8c95.695 0 143.557-0.027 179.202-20.6 19.855-11.468 36.818-27.234 49.746-46.050 0.481 0.019 0.968 0.1 1.454 0.1h55.598c77.537-0.007 116.372-93.769 61.548-148.6l-91.546-91.55v-67.050h29.998c77.537-0.007 116.372-93.768 61.548-148.598l-91.796-91.802c-3.574-3.569-7.736-6.154-12.15-7.9-2.304-6.369-4.956-12.329-8.202-17.951-13.481-23.342-32.86-42.721-56.197-56.202-30.889-17.828-70.943-20.076-143.35-20.398v-205c0-19.794-16.056-35.85-35.852-35.85-19.789 0.005-35.85 16.061-35.85 35.85v205c-72.403 0.323-112.466 2.57-143.35 20.398-23.339 13.481-42.723 32.86-56.2 56.202-3.248 5.627-5.945 11.576-8.25 17.951-4.393 1.746-8.545 4.342-12.1 7.9l-91.8 91.802c-54.813 54.825-15.976 148.581 61.55 148.598h30v67.050l-91.55 91.55c-54.813 54.829-15.976 148.584 61.55 148.6h55.6c0.483 0 0.971-0.131 1.45-0.15 12.931 18.833 29.878 34.623 49.75 46.1 35.641 20.577 83.503 20.6 179.2 20.6zM511.988 499.2c-56.549-0.007-102.4-45.85-102.4-102.4s45.851-102.395 102.4-102.4c56.552 0 102.402 45.844 102.402 102.4 0 56.554-45.85 102.4-102.402 102.4zM225.988 463.35c-13.667-0.016-20.507-16.527-10.85-26.199l41.1-41.098c-0.166 15.59-0.25 32.814-0.25 51.948v15.35h-30zM767.99 448c0-19.113-0.087-36.321-0.251-51.901l41.098 41.052c9.672 9.677 2.826 26.193-10.849 26.199h-29.998v-15.35zM511.988 806.4c-56.549-0.007-102.4-45.85-102.4-102.4s45.851-102.393 102.4-102.4c56.552 0 102.402 45.846 102.402 102.4s-45.85 102.4-102.402 102.4zM225.988 770.55c-13.667-0.016-20.507-16.527-10.85-26.2l41.1-41.1c0.265 26.71 1.052 48.666 3.050 67.3h-33.3zM764.739 770.55c1.997-18.622 2.734-40.564 3-67.25l41.098 41.050c9.672 9.675 2.826 26.193-10.849 26.2h-33.249z" />
<glyph unicode="&#xe729;" glyph-name="transportation-moto" data-tags="transportation-moto" d="M179.225 396.78c70.681-0.010 128-57.313 128-128-0.010-70.671-57.325-127.985-128-128-70.686 0-127.99 57.318-128 128 0 70.692 57.308 128 128 128zM793.626 396.78c70.682-0.010 128-57.313 128-128-0.010-70.671-57.324-127.985-128-128-70.687 0-127.99 57.318-128 128 0 70.692 57.308 128 128 128zM643.727 772.981c9.82 17.177 31.713 23.118 48.896 13.3 35.866-20.497 92.247-62.317 143.304-120.45 42.568-48.481 99.533-135.848 120.146-208 3.83-13.426-0.476-27.885-11.049-36.998-10.578-9.119-25.533-11.274-38.252-5.504-47.621 21.652-105.999 32.271-158.546 20.152-50.591-11.679-99.169-45.061-129.951-118.999-13.394-32.138-44.723-57.938-83.901-57.953h-121.549c-45.004 0.015-77.983 33.393-88.55 70.252-7.965 27.796-21.418 54.82-43.15 74.701-21.010 19.21-52.492 34.243-101.9 34.248-65.845 0-112.599 36.261-138 78.052-12.57 20.687-20.43 43.44-23 65.2-2.492 21.13-0.35 44.895 11.5 64.65 8.116 13.515 24.104 20.119 39.4 16.3l283.55-70.85c4.485-1.116 8.928-0.121 12.15 2.4l0.050 0.050c31.549 24.703 75.304 59.346 130.25 76.65 57.149 17.993 123.903 16.656 200.248-24.2 6.308-3.364 12.268-3.44 16.251-1.95l33.551 12.6c-28.196 26.578-55.516 47.067-76.252 60.25l-11.848 7.2-5.898 4.2c-12.529 11.001-16.041 29.66-7.45 44.7z" />
<glyph unicode="&#xe72a;" glyph-name="transportation-plane-17" data-tags="transportation-plane-17" d="M755.953 88.873l-216.847 289.27-108.425-100.936 14.701-88.458c7.747-46.612-8.392-94.003-42.977-126.203-13.266-12.349-34.572-9.144-43.615 6.564l-82.022 142.479c-5.654 9.82-14.407 17.49-24.887 21.801l-155.241 63.892c-21.236 8.74-26.284 36.531-9.475 52.183 29.148 27.136 67.492 42.22 107.316 42.22h127.777l81.318 100.938-325.271 176.643 70.042 65.206c24.1 22.436 57.518 31.914 89.808 25.473l328.057-65.445 63.299 76.179c44.959 54.103 114.534 81.347 184.274 72.156l63.304-8.343c11.735-1.546 21.801-9.127 26.527-19.977 39.828-91.417 7.163-198.222-76.984-251.722l-70.676-44.936 69.089-278.734c7.706-31.068 0.435-63.954-19.645-88.878l-49.444-61.373z" />
<glyph unicode="&#xe72b;" glyph-name="transportation-plane-18" data-tags="transportation-plane-18" d="M921.6 125.45l7.199-0.748c16.343-3.338 28.652-17.777 28.652-35.103s-12.308-31.764-28.652-35.098l-7.199-0.753h-819.2c-19.794 0-35.85 16.056-35.85 35.85s16.056 35.85 35.85 35.85h819.2zM270.73 766.923l-59.796 20.086c-30.138 10.124-62.119-9.379-66.917-40.808l-34.593-226.595c-3.983-26.087 12.515-50.928 38.105-57.375l259.711-65.432-101.614-102.4 126.666-36.47c32.068-9.231 66.623-2.263 92.6 18.683l65.695 52.961c12.518 10.092 29.051 13.716 44.641 9.789l227.835-57.4c28.416-7.158 57.692 11.151 58.45 40.443 5.361 208.546-232.658 245.695-311.045 253.595l-257.926 21.66c-26.523 2.227-46.916 24.404-46.916 51.020v69.707c0 21.994-14.047 41.531-34.896 48.535z" />
</font>
</defs>
</svg>
