<?xml version="1.0" encoding="utf-8"?>
<!-- Generator: Adobe Illustrator 27.5.0, SVG Export Plug-In . SVG Version: 6.00 Build 0)  -->
<svg version="1.1" id="Layer_1" xmlns="http://www.w3.org/2000/svg" xmlns:xlink="http://www.w3.org/1999/xlink" x="0px" y="0px"
	 viewBox="0 0 1024 1024" style="enable-background:new 0 0 1024 1024;" xml:space="preserve">
<style type="text/css">
	.st0{fill:#226DB4;}
	.st1{fill:#089949;}
</style>
<path class="st0" d="M995.8,249.6c-16.5-39.1-40.2-74.3-70.4-104.5S860,91.3,820.9,74.7c-13-5.5-26.3-10.1-39.8-13.9V32.9
	c0-16.5-13.4-29.9-29.9-29.9s-29.9,13.4-29.9,29.9v17.2c-9.4-0.8-18.9-1.2-28.4-1.2h-301c-16.5,0-29.9,13.4-29.9,29.9
	c0,16.5,13.4,29.9,29.9,29.9H693c9.6,0,19,0.5,28.4,1.5v15.3c0,16.5,13.4,29.9,29.9,29.9s29.9-13.4,29.9-29.9v-2
	c37.9,13.1,72.7,34.8,102,64c50.8,50.8,78.8,118.3,78.8,190.1v315.4c0,71.8-28,139.3-78.8,190.1c-50.8,50.8-118.3,78.8-190.1,78.8
	h-73c-16.5,0-29.9,13.4-29.9,29.9s13.4,29.9,29.9,29.9h73c44.4,0,87.4-8.7,127.9-25.8c39.1-16.5,74.3-40.2,104.5-70.4
	s53.9-65.3,70.4-104.5c17.2-40.5,25.8-83.6,25.8-127.9V377.5C1021.6,333.2,1012.9,290.1,995.8,249.6z"/>
<path class="st0" d="M659.6,692.6c0-44.4-8.7-87.4-25.8-127.9c-11.1-26.2-25.4-50.7-42.7-73l-43.9,40.9c34.2,46,52.7,101.6,52.7,160
	c0,71.8-28,139.3-78.8,190.1c-50.8,50.8-118.3,78.8-190.1,78.8s-139.3-28-190.1-78.8c-50.8-50.8-78.8-118.3-78.8-190.1
	s28-139.3,78.8-190.1c50.8-50.8,118.3-78.8,190.1-78.8c65.1,0,126.7,23,175.4,65.1l43.9-40.9c-27.1-24.4-57.8-43.9-91.4-58.1
	c-40.5-17.2-83.6-25.8-127.9-25.8s-87.4,8.7-127.9,25.8c-39.1,16.5-74.3,40.2-104.5,70.4c-13.5,13.5-25.7,28-36.5,43.3v-126
	c0-62.6,22-123.5,61.8-171.6c31.4-37.9,72.7-66.4,118.6-82.4v1.2c0,16.5,13.4,29.9,29.9,29.9s29.9-13.4,29.9-29.9V84.9
	c0-0.1,0-0.3,0-0.4V32.3c0-16.5-13.4-29.9-29.9-29.9s-29.9,13.4-29.9,29.9V61c-64,17.9-121.8,55.2-164.6,106.8
	c-23.9,28.9-42.6,61.3-55.5,96.3C9.1,300.4,2.4,338.5,2.4,377.5v315.4c0,44.4,8.7,87.4,25.8,127.9c16.5,39.1,40.2,74.3,70.4,104.5
	c30.2,30.2,65.3,53.9,104.5,70.4c40.5,17.2,83.6,25.8,127.9,25.8c1.6,0,3.2-0.1,4.8-0.4c42.6-0.6,84-9.2,123.1-25.8
	c39.1-16.5,74.3-40.2,104.5-70.4s53.9-65.3,70.4-104.5C651,780,659.6,736.9,659.6,692.6z"/>
<path class="st1" d="M332.4,650.7l-76.3-81.4c-11.3-12-30.2-12.7-42.2-1.4c-12,11.3-12.6,30.2-1.4,42.2l96.6,103.1
	c5.9,6.3,13.8,9.5,21.8,9.5c7.3,0,14.6-2.7,20.3-8l195.8-182.3l43.9-40.9l56.8-52.9c12.1-11.2,12.8-30.2,1.5-42.2
	c-11.2-12.1-30.1-12.8-42.2-1.5l-56.8,52.9l-43.9,40.9L332.4,650.7z"/>
</svg>
