<?xml version="1.0" encoding="utf-8"?>
<!-- Generator: Adobe Illustrator 27.4.0, SVG Export Plug-In . SVG Version: 6.00 Build 0)  -->
<svg version="1.1" id="Layer_1" xmlns="http://www.w3.org/2000/svg" xmlns:xlink="http://www.w3.org/1999/xlink" x="0px" y="0px"
	 viewBox="0 0 1024 1024" style="enable-background:new 0 0 1024 1024;" xml:space="preserve">
<style type="text/css">
	.st0{fill:#089949;}
</style>
<g>
	<path class="st0" d="M1015.2,233.3c-11.7-11.7-30.7-11.7-42.4,0l-93.2,93.2c-0.1,0.1-0.3,0.3-0.4,0.4L575.7,630.4
		c-17,17-39.6,26.4-63.6,26.4s-46.6-9.4-63.6-26.4l-55.3-55.3c-11.7-11.7-30.7-11.7-42.4,0c-11.7,11.7-11.7,30.7,0,42.4l55.3,55.3
		c28.3,28.3,66,44,106.1,44c40,0,77.7-15.6,106.1-44l270.4-270.4C898.8,437.8,904,474.5,904,512c0,52.9-10.4,104.3-30.8,152.6
		c-19.7,46.7-48,88.6-84,124.6s-77.9,64.3-124.6,84C616.3,893.6,564.9,904,512,904c-117,0-227.1-51.7-301.9-142
		c-10.6-12.8-29.5-14.5-42.2-3.9c-12.8,10.6-14.5,29.5-3.9,42.2C250.2,904.4,377.1,964,512,964c61,0,120.2-12,176-35.5
		c53.8-22.8,102.2-55.3,143.7-96.8s74.1-89.8,96.8-143.7C952,632.2,964,573,964,512c0-54.2-9.4-106.9-28-157l79.3-79.3
		C1026.9,264,1026.9,245,1015.2,233.3z"/>
	<path class="st0" d="M144.8,696.1l303.5-303.6c17-17,39.6-26.4,63.6-26.4c24,0,46.6,9.4,63.6,26.4l55.3,55.3
		c11.7,11.7,30.7,11.7,42.4,0s11.7-30.7,0-42.4L618,350.1c-28.3-28.3-66-44-106.1-44s-77.7,15.6-106.1,44L135.3,620.8
		C125.1,585.7,120,549.2,120,512c0-52.9,10.4-104.3,30.8-152.6c19.7-46.7,48-88.6,84-124.6s77.9-64.3,124.6-84
		C407.7,130.4,459.1,120,512,120c116.8,0,226.7,51.6,301.4,141.5c10.6,12.7,29.5,14.5,42.2,3.9s14.5-29.5,3.9-42.2
		C773.4,119.5,646.7,60,512,60c-61,0-120.2,12-176,35.5c-53.8,22.8-102.2,55.3-143.7,96.8S118.2,282.1,95.5,336
		C72,391.8,60,451,60,512c0,53.9,9.3,106.4,27.8,156.3l-79,79C-2.9,759-2.9,778,8.8,789.7c5.9,5.9,13.5,8.8,21.2,8.8
		s15.4-2.9,21.2-8.8l92.1-92.1C143.8,697.1,144.3,696.6,144.8,696.1z"/>
</g>
</svg>
